<svg width="618" height="532" viewBox="0 0 618 532" fill="none" xmlns="http://www.w3.org/2000/svg">
<rect x="1.5" y="1.5" width="615" height="528.731" rx="11.5" fill="white" stroke="#9D9D9D" stroke-width="3"/>
<path d="M14.9526 25.3218C14.9526 19.799 19.4297 15.3218 24.9526 15.3218H593.046C598.569 15.3218 603.046 19.799 603.046 25.3218V179.613H14.9526V25.3218Z" fill="#FF6600"/>
<path d="M14.9526 352.118H603.046V506.409C603.046 511.932 598.569 516.409 593.046 516.409H24.9526C19.4297 516.409 14.9526 511.932 14.9526 506.409V352.118Z" fill="#FF6600"/>
<path d="M26.8168 295.433C26.5668 295.433 26.3418 295.358 26.1418 295.208C25.9918 295.008 25.9168 294.783 25.9168 294.533V243.833C25.9168 243.583 25.9918 243.383 26.1418 243.233C26.3418 243.033 26.5668 242.933 26.8168 242.933H35.5918C35.8418 242.933 36.0418 243.033 36.1918 243.233C36.3918 243.383 36.4918 243.583 36.4918 243.833V285.983C36.4918 286.233 36.6168 286.358 36.8668 286.358H52.6168C52.8668 286.358 53.0668 286.458 53.2168 286.658C53.4168 286.808 53.5168 287.008 53.5168 287.258V294.533C53.5168 294.783 53.4168 295.008 53.2168 295.208C53.0668 295.358 52.8668 295.433 52.6168 295.433H26.8168ZM73.4575 296.033C68.8575 296.033 65.1825 294.683 62.4325 291.983C59.6825 289.283 58.3075 285.683 58.3075 281.183V257.183C58.3075 252.683 59.6825 249.083 62.4325 246.383C65.1825 243.683 68.8575 242.333 73.4575 242.333C78.0575 242.333 81.7325 243.683 84.4825 246.383C87.2825 249.083 88.6825 252.683 88.6825 257.183V281.183C88.6825 285.683 87.2825 289.283 84.4825 291.983C81.7325 294.683 78.0575 296.033 73.4575 296.033ZM73.4575 286.958C74.8575 286.958 75.9825 286.483 76.8325 285.533C77.6825 284.533 78.1075 283.233 78.1075 281.633V256.733C78.1075 255.133 77.6825 253.858 76.8325 252.908C75.9825 251.908 74.8575 251.408 73.4575 251.408C72.0575 251.408 70.9325 251.908 70.0825 252.908C69.2825 253.858 68.8825 255.133 68.8825 256.733V281.633C68.8825 283.233 69.2825 284.533 70.0825 285.533C70.9325 286.483 72.0575 286.958 73.4575 286.958ZM110.407 296.033C105.807 296.033 102.132 294.683 99.3817 291.983C96.6317 289.283 95.2567 285.683 95.2567 281.183V257.183C95.2567 252.683 96.6317 249.083 99.3817 246.383C102.132 243.683 105.807 242.333 110.407 242.333C115.007 242.333 118.682 243.683 121.432 246.383C124.232 249.083 125.632 252.683 125.632 257.183V281.183C125.632 285.683 124.232 289.283 121.432 291.983C118.682 294.683 115.007 296.033 110.407 296.033ZM110.407 286.958C111.807 286.958 112.932 286.483 113.782 285.533C114.632 284.533 115.057 283.233 115.057 281.633V256.733C115.057 255.133 114.632 253.858 113.782 252.908C112.932 251.908 111.807 251.408 110.407 251.408C109.007 251.408 107.882 251.908 107.032 252.908C106.232 253.858 105.832 255.133 105.832 256.733V281.633C105.832 283.233 106.232 284.533 107.032 285.533C107.882 286.483 109.007 286.958 110.407 286.958ZM133.856 295.433C133.606 295.433 133.381 295.358 133.181 295.208C133.031 295.008 132.956 294.783 132.956 294.533V243.833C132.956 243.583 133.031 243.383 133.181 243.233C133.381 243.033 133.606 242.933 133.856 242.933H142.631C142.881 242.933 143.081 243.033 143.231 243.233C143.431 243.383 143.531 243.583 143.531 243.833V262.733C143.531 262.933 143.581 263.058 143.681 263.108C143.831 263.108 143.931 263.008 143.981 262.808L153.656 243.608C153.906 243.158 154.256 242.933 154.706 242.933H164.006C164.356 242.933 164.581 243.033 164.681 243.233C164.831 243.383 164.831 243.633 164.681 243.983L153.581 265.583C153.531 265.783 153.506 265.933 153.506 266.033L165.281 294.383C165.331 294.483 165.356 294.633 165.356 294.833C165.356 295.233 165.106 295.433 164.606 295.433H155.231C154.681 295.433 154.331 295.208 154.181 294.758L146.381 275.108C146.331 274.958 146.256 274.908 146.156 274.958C146.056 274.958 145.956 275.008 145.856 275.108L143.681 279.008C143.581 279.208 143.531 279.358 143.531 279.458V294.533C143.531 294.783 143.431 295.008 143.231 295.208C143.081 295.358 142.881 295.433 142.631 295.433H133.856ZM215.261 251.108C215.261 251.358 215.161 251.583 214.961 251.783C214.811 251.933 214.611 252.008 214.361 252.008H198.761C198.511 252.008 198.386 252.133 198.386 252.383V264.233C198.386 264.483 198.511 264.608 198.761 264.608H207.686C207.936 264.608 208.136 264.708 208.286 264.908C208.486 265.058 208.586 265.258 208.586 265.508V272.783C208.586 273.033 208.486 273.258 208.286 273.458C208.136 273.608 207.936 273.683 207.686 273.683H198.761C198.511 273.683 198.386 273.808 198.386 274.058V294.533C198.386 294.783 198.286 295.008 198.086 295.208C197.936 295.358 197.736 295.433 197.486 295.433H188.711C188.461 295.433 188.236 295.358 188.036 295.208C187.886 295.008 187.811 294.783 187.811 294.533V243.833C187.811 243.583 187.886 243.383 188.036 243.233C188.236 243.033 188.461 242.933 188.711 242.933H214.361C214.611 242.933 214.811 243.033 214.961 243.233C215.161 243.383 215.261 243.583 215.261 243.833V251.108ZM235.279 296.033C230.679 296.033 227.004 294.683 224.254 291.983C221.504 289.283 220.129 285.683 220.129 281.183V257.183C220.129 252.683 221.504 249.083 224.254 246.383C227.004 243.683 230.679 242.333 235.279 242.333C239.879 242.333 243.554 243.683 246.304 246.383C249.104 249.083 250.504 252.683 250.504 257.183V281.183C250.504 285.683 249.104 289.283 246.304 291.983C243.554 294.683 239.879 296.033 235.279 296.033ZM235.279 286.958C236.679 286.958 237.804 286.483 238.654 285.533C239.504 284.533 239.929 283.233 239.929 281.633V256.733C239.929 255.133 239.504 253.858 238.654 252.908C237.804 251.908 236.679 251.408 235.279 251.408C233.879 251.408 232.754 251.908 231.904 252.908C231.104 253.858 230.704 255.133 230.704 256.733V281.633C230.704 283.233 231.104 284.533 231.904 285.533C232.754 286.483 233.879 286.958 235.279 286.958ZM278.528 295.433C277.978 295.433 277.628 295.183 277.478 294.683L271.703 273.983C271.603 273.783 271.478 273.683 271.328 273.683H268.778C268.528 273.683 268.403 273.808 268.403 274.058V294.533C268.403 294.783 268.303 295.008 268.103 295.208C267.953 295.358 267.753 295.433 267.503 295.433H258.728C258.478 295.433 258.253 295.358 258.053 295.208C257.903 295.008 257.828 294.783 257.828 294.533V243.833C257.828 243.583 257.903 243.383 258.053 243.233C258.253 243.033 258.478 242.933 258.728 242.933H273.878C276.628 242.933 279.078 243.608 281.228 244.958C283.378 246.258 285.028 248.108 286.178 250.508C287.378 252.908 287.978 255.658 287.978 258.758C287.978 261.708 287.403 264.308 286.253 266.558C285.153 268.808 283.603 270.558 281.603 271.808C281.503 271.858 281.428 271.933 281.378 272.033C281.328 272.083 281.328 272.158 281.378 272.258L288.278 294.383L288.353 294.683C288.353 295.183 288.078 295.433 287.528 295.433H278.528ZM268.778 252.008C268.528 252.008 268.403 252.133 268.403 252.383V265.208C268.403 265.458 268.528 265.583 268.778 265.583H272.153C273.703 265.583 274.953 264.983 275.903 263.783C276.903 262.533 277.403 260.883 277.403 258.833C277.403 256.733 276.903 255.083 275.903 253.883C274.953 252.633 273.703 252.008 272.153 252.008H268.778ZM325.545 296.033C320.945 296.033 317.27 294.683 314.52 291.983C311.77 289.283 310.395 285.683 310.395 281.183V257.183C310.395 252.683 311.77 249.083 314.52 246.383C317.27 243.683 320.945 242.333 325.545 242.333C330.145 242.333 333.82 243.683 336.57 246.383C339.37 249.083 340.77 252.683 340.77 257.183V281.183C340.77 285.683 339.37 289.283 336.57 291.983C333.82 294.683 330.145 296.033 325.545 296.033ZM325.545 286.958C326.945 286.958 328.07 286.483 328.92 285.533C329.77 284.533 330.195 283.233 330.195 281.633V256.733C330.195 255.133 329.77 253.858 328.92 252.908C328.07 251.908 326.945 251.408 325.545 251.408C324.145 251.408 323.02 251.908 322.17 252.908C321.37 253.858 320.97 255.133 320.97 256.733V281.633C320.97 283.233 321.37 284.533 322.17 285.533C323.02 286.483 324.145 286.958 325.545 286.958ZM362.795 296.033C358.295 296.033 354.67 294.633 351.92 291.833C349.22 288.983 347.87 285.208 347.87 280.508V243.833C347.87 243.583 347.945 243.383 348.095 243.233C348.295 243.033 348.52 242.933 348.77 242.933H357.545C357.795 242.933 357.995 243.033 358.145 243.233C358.345 243.383 358.445 243.583 358.445 243.833V281.558C358.445 283.158 358.845 284.458 359.645 285.458C360.445 286.458 361.495 286.958 362.795 286.958C364.095 286.958 365.12 286.458 365.87 285.458C366.67 284.458 367.07 283.158 367.07 281.558V243.833C367.07 243.583 367.145 243.383 367.295 243.233C367.495 243.033 367.72 242.933 367.97 242.933H376.745C376.995 242.933 377.195 243.033 377.345 243.233C377.545 243.383 377.645 243.583 377.645 243.833V280.508C377.645 285.208 376.27 288.983 373.52 291.833C370.82 294.633 367.245 296.033 362.795 296.033ZM406.183 295.433C405.633 295.433 405.283 295.183 405.133 294.683L399.358 273.983C399.258 273.783 399.133 273.683 398.983 273.683H396.433C396.183 273.683 396.058 273.808 396.058 274.058V294.533C396.058 294.783 395.958 295.008 395.758 295.208C395.608 295.358 395.408 295.433 395.158 295.433H386.383C386.133 295.433 385.908 295.358 385.708 295.208C385.558 295.008 385.483 294.783 385.483 294.533V243.833C385.483 243.583 385.558 243.383 385.708 243.233C385.908 243.033 386.133 242.933 386.383 242.933H401.533C404.283 242.933 406.733 243.608 408.883 244.958C411.033 246.258 412.683 248.108 413.833 250.508C415.033 252.908 415.633 255.658 415.633 258.758C415.633 261.708 415.058 264.308 413.908 266.558C412.808 268.808 411.258 270.558 409.258 271.808C409.158 271.858 409.083 271.933 409.033 272.033C408.983 272.083 408.983 272.158 409.033 272.258L415.933 294.383L416.008 294.683C416.008 295.183 415.733 295.433 415.183 295.433H406.183ZM396.433 252.008C396.183 252.008 396.058 252.133 396.058 252.383V265.208C396.058 265.458 396.183 265.583 396.433 265.583H399.808C401.358 265.583 402.608 264.983 403.558 263.783C404.558 262.533 405.058 260.883 405.058 258.833C405.058 256.733 404.558 255.083 403.558 253.883C402.608 252.633 401.358 252.008 399.808 252.008H396.433ZM452.301 296.033C449.401 296.033 446.851 295.458 444.651 294.308C442.451 293.158 440.751 291.558 439.551 289.508C438.351 287.408 437.751 285.008 437.751 282.308V280.133C437.751 279.883 437.826 279.683 437.976 279.533C438.176 279.333 438.401 279.233 438.651 279.233H447.276C447.526 279.233 447.726 279.333 447.876 279.533C448.076 279.683 448.176 279.883 448.176 280.133V281.783C448.176 283.333 448.576 284.583 449.376 285.533C450.176 286.483 451.176 286.958 452.376 286.958C453.576 286.958 454.576 286.508 455.376 285.608C456.176 284.708 456.576 283.533 456.576 282.083C456.576 280.583 456.076 279.308 455.076 278.258C454.076 277.158 452.126 275.558 449.226 273.458C446.726 271.658 444.701 270.058 443.151 268.658C441.601 267.258 440.276 265.533 439.176 263.483C438.076 261.433 437.526 259.058 437.526 256.358C437.526 252.108 438.851 248.708 441.501 246.158C444.151 243.608 447.651 242.333 452.001 242.333C456.401 242.333 459.926 243.658 462.576 246.308C465.276 248.958 466.626 252.433 466.626 256.733V258.533C466.626 258.783 466.526 259.008 466.326 259.208C466.176 259.358 465.976 259.433 465.726 259.433H457.101C456.851 259.433 456.626 259.358 456.426 259.208C456.276 259.008 456.201 258.783 456.201 258.533V256.508C456.201 254.958 455.801 253.733 455.001 252.833C454.251 251.883 453.251 251.408 452.001 251.408C450.801 251.408 449.826 251.858 449.076 252.758C448.326 253.608 447.951 254.808 447.951 256.358C447.951 257.858 448.426 259.183 449.376 260.333C450.326 261.483 452.201 263.083 455.001 265.133C458.101 267.433 460.426 269.308 461.976 270.758C463.576 272.158 464.801 273.733 465.651 275.483C466.551 277.183 467.001 279.233 467.001 281.633C467.001 286.033 465.651 289.533 462.951 292.133C460.251 294.733 456.701 296.033 452.301 296.033ZM474.526 295.433C474.276 295.433 474.051 295.358 473.851 295.208C473.701 295.008 473.626 294.783 473.626 294.533V243.833C473.626 243.583 473.701 243.383 473.851 243.233C474.051 243.033 474.276 242.933 474.526 242.933H483.301C483.551 242.933 483.751 243.033 483.901 243.233C484.101 243.383 484.201 243.583 484.201 243.833V294.533C484.201 294.783 484.101 295.008 483.901 295.208C483.751 295.358 483.551 295.433 483.301 295.433H474.526ZM506.586 296.033C502.086 296.033 498.461 294.758 495.711 292.208C493.011 289.608 491.661 286.158 491.661 281.858V256.508C491.661 252.208 493.011 248.783 495.711 246.233C498.461 243.633 502.086 242.333 506.586 242.333C511.086 242.333 514.711 243.633 517.461 246.233C520.211 248.833 521.586 252.283 521.586 256.583V259.433C521.586 259.683 521.486 259.908 521.286 260.108C521.136 260.258 520.936 260.333 520.686 260.333H511.911C511.661 260.333 511.436 260.258 511.236 260.108C511.086 259.908 511.011 259.683 511.011 259.433V256.433C511.011 254.933 510.611 253.733 509.811 252.833C509.011 251.883 507.936 251.408 506.586 251.408C505.286 251.408 504.236 251.883 503.436 252.833C502.636 253.733 502.236 254.933 502.236 256.433V281.933C502.236 283.433 502.636 284.658 503.436 285.608C504.236 286.508 505.286 286.958 506.586 286.958C507.936 286.958 509.011 286.508 509.811 285.608C510.611 284.658 511.011 283.433 511.011 281.933V275.933C511.011 275.683 510.886 275.558 510.636 275.558H507.336C507.086 275.558 506.861 275.483 506.661 275.333C506.511 275.133 506.436 274.908 506.436 274.658V267.983C506.436 267.733 506.511 267.533 506.661 267.383C506.861 267.183 507.086 267.083 507.336 267.083H520.686C520.936 267.083 521.136 267.183 521.286 267.383C521.486 267.533 521.586 267.733 521.586 267.983V281.858C521.586 286.158 520.211 289.608 517.461 292.208C514.711 294.758 511.086 296.033 506.586 296.033ZM550.371 243.833C550.371 243.583 550.446 243.383 550.596 243.233C550.796 243.033 551.021 242.933 551.271 242.933H559.971C560.221 242.933 560.421 243.033 560.571 243.233C560.771 243.383 560.871 243.583 560.871 243.833V294.533C560.871 294.783 560.771 295.008 560.571 295.208C560.421 295.358 560.221 295.433 559.971 295.433H550.071C549.571 295.433 549.246 295.183 549.096 294.683L539.796 265.658C539.746 265.508 539.646 265.458 539.496 265.508C539.396 265.508 539.346 265.583 539.346 265.733L539.421 294.533C539.421 294.783 539.321 295.008 539.121 295.208C538.971 295.358 538.771 295.433 538.521 295.433H529.821C529.571 295.433 529.346 295.358 529.146 295.208C528.996 295.008 528.921 294.783 528.921 294.533V243.833C528.921 243.583 528.996 243.383 529.146 243.233C529.346 243.033 529.571 242.933 529.821 242.933H539.646C540.146 242.933 540.471 243.183 540.621 243.683L549.996 272.708C550.046 272.858 550.121 272.933 550.221 272.933C550.371 272.883 550.446 272.783 550.446 272.633L550.371 243.833ZM572.771 277.433C572.521 277.433 572.296 277.358 572.096 277.208C571.946 277.008 571.871 276.783 571.871 276.533L570.746 243.833C570.746 243.583 570.821 243.383 570.971 243.233C571.171 243.033 571.396 242.933 571.646 242.933H580.421C580.671 242.933 580.871 243.033 581.021 243.233C581.221 243.383 581.321 243.583 581.321 243.833L580.271 276.533C580.271 276.783 580.171 277.008 579.971 277.208C579.821 277.358 579.621 277.433 579.371 277.433H572.771ZM576.146 295.358C574.446 295.358 573.021 294.808 571.871 293.708C570.771 292.558 570.221 291.133 570.221 289.433C570.221 287.683 570.771 286.258 571.871 285.158C572.971 284.058 574.396 283.508 576.146 283.508C577.896 283.508 579.296 284.058 580.346 285.158C581.446 286.258 581.996 287.683 581.996 289.433C581.996 291.133 581.446 292.558 580.346 293.708C579.246 294.808 577.846 295.358 576.146 295.358Z" fill="black"/>
</svg>
