<svg width="1110" height="385" viewBox="0 0 1110 385" fill="none" xmlns="http://www.w3.org/2000/svg">
<path d="M66.9 101.05C66.9 110.35 64.1 117.5 58.5 122.5C52.9 127.5 45.65 130 36.75 130H8.4C7.9 130 7.45 129.85 7.05 129.55C6.75 129.15 6.6 128.7 6.6 128.2V26.8C6.6 26.3 6.75 25.9 7.05 25.6C7.45 25.2 7.9 25 8.4 25H33.45C43.45 25 51.25 27.4 56.85 32.2C62.55 37 65.4 44.15 65.4 53.65C65.4 63.55 62 70.75 55.2 75.25C54.8 75.55 54.75 75.85 55.05 76.15C62.95 81.75 66.9 90.05 66.9 101.05ZM28.5 43.15C28 43.15 27.75 43.4 27.75 43.9V67.45C27.75 67.95 28 68.2 28.5 68.2H33.9C37.3 68.2 39.95 67.15 41.85 65.05C43.75 62.85 44.7 59.8 44.7 55.9C44.7 51.8 43.75 48.65 41.85 46.45C40.05 44.25 37.4 43.15 33.9 43.15H28.5ZM35.1 111.7C38.4 111.7 41 110.5 42.9 108.1C44.8 105.7 45.75 102.3 45.75 97.9C45.75 93.5 44.8 90 42.9 87.4C41 84.8 38.45 83.5 35.25 83.5H28.5C28 83.5 27.75 83.75 27.75 84.25V110.95C27.75 111.45 28 111.7 28.5 111.7H35.1ZM81.859 130C81.359 130 80.909 129.85 80.509 129.55C80.209 129.15 80.059 128.7 80.059 128.2V26.8C80.059 26.3 80.209 25.9 80.509 25.6C80.909 25.2 81.359 25 81.859 25H99.409C99.909 25 100.309 25.2 100.609 25.6C101.009 25.9 101.209 26.3 101.209 26.8V111.1C101.209 111.6 101.459 111.85 101.959 111.85H133.459C133.959 111.85 134.359 112.05 134.659 112.45C135.059 112.75 135.259 113.15 135.259 113.65V128.2C135.259 128.7 135.059 129.15 134.659 129.55C134.359 129.85 133.959 130 133.459 130H81.859ZM176.326 131.2C167.326 131.2 160.076 128.4 154.576 122.8C149.176 117.1 146.476 109.55 146.476 100.15V26.8C146.476 26.3 146.626 25.9 146.926 25.6C147.326 25.2 147.776 25 148.276 25H165.826C166.326 25 166.726 25.2 167.026 25.6C167.426 25.9 167.626 26.3 167.626 26.8V102.25C167.626 105.45 168.426 108.05 170.026 110.05C171.626 112.05 173.726 113.05 176.326 113.05C178.926 113.05 180.976 112.05 182.476 110.05C184.076 108.05 184.876 105.45 184.876 102.25V26.8C184.876 26.3 185.026 25.9 185.326 25.6C185.726 25.2 186.176 25 186.676 25H204.226C204.726 25 205.126 25.2 205.426 25.6C205.826 25.9 206.026 26.3 206.026 26.8V100.15C206.026 109.55 203.276 117.1 197.776 122.8C192.376 128.4 185.226 131.2 176.326 131.2ZM275.875 41.35C275.875 41.85 275.675 42.3 275.275 42.7C274.975 43 274.575 43.15 274.075 43.15H242.725C242.225 43.15 241.975 43.4 241.975 43.9V67.6C241.975 68.1 242.225 68.35 242.725 68.35H260.725C261.225 68.35 261.625 68.55 261.925 68.95C262.325 69.25 262.525 69.65 262.525 70.15V84.7C262.525 85.2 262.325 85.65 261.925 86.05C261.625 86.35 261.225 86.5 260.725 86.5H242.725C242.225 86.5 241.975 86.75 241.975 87.25V111.1C241.975 111.6 242.225 111.85 242.725 111.85H274.075C274.575 111.85 274.975 112.05 275.275 112.45C275.675 112.75 275.875 113.15 275.875 113.65V128.2C275.875 128.7 275.675 129.15 275.275 129.55C274.975 129.85 274.575 130 274.075 130H222.625C222.125 130 221.675 129.85 221.275 129.55C220.975 129.15 220.825 128.7 220.825 128.2V26.8C220.825 26.3 220.975 25.9 221.275 25.6C221.675 25.2 222.125 25 222.625 25H274.075C274.575 25 274.975 25.2 275.275 25.6C275.675 25.9 275.875 26.3 275.875 26.8V41.35ZM349.625 131.2C343.825 131.2 338.725 130.05 334.325 127.75C329.925 125.45 326.525 122.25 324.125 118.15C321.725 113.95 320.525 109.15 320.525 103.75V99.4C320.525 98.9 320.675 98.5 320.975 98.2C321.375 97.8 321.825 97.6 322.325 97.6H339.575C340.075 97.6 340.475 97.8 340.775 98.2C341.175 98.5 341.375 98.9 341.375 99.4V102.7C341.375 105.8 342.175 108.3 343.775 110.2C345.375 112.1 347.375 113.05 349.775 113.05C352.175 113.05 354.175 112.15 355.775 110.35C357.375 108.55 358.175 106.2 358.175 103.3C358.175 100.3 357.175 97.75 355.175 95.65C353.175 93.45 349.275 90.25 343.475 86.05C338.475 82.45 334.425 79.25 331.325 76.45C328.225 73.65 325.575 70.2 323.375 66.1C321.175 62 320.075 57.25 320.075 51.85C320.075 43.35 322.725 36.55 328.025 31.45C333.325 26.35 340.325 23.8 349.025 23.8C357.825 23.8 364.875 26.45 370.175 31.75C375.575 37.05 378.275 44 378.275 52.6V56.2C378.275 56.7 378.075 57.15 377.675 57.55C377.375 57.85 376.975 58 376.475 58H359.225C358.725 58 358.275 57.85 357.875 57.55C357.575 57.15 357.425 56.7 357.425 56.2V52.15C357.425 49.05 356.625 46.6 355.025 44.8C353.525 42.9 351.525 41.95 349.025 41.95C346.625 41.95 344.675 42.85 343.175 44.65C341.675 46.35 340.925 48.75 340.925 51.85C340.925 54.85 341.875 57.5 343.775 59.8C345.675 62.1 349.425 65.3 355.025 69.4C361.225 74 365.875 77.75 368.975 80.65C372.175 83.45 374.625 86.6 376.325 90.1C378.125 93.5 379.025 97.6 379.025 102.4C379.025 111.2 376.325 118.2 370.925 123.4C365.525 128.6 358.425 131.2 349.625 131.2ZM394.076 130C393.576 130 393.126 129.85 392.726 129.55C392.426 129.15 392.276 128.7 392.276 128.2V26.8C392.276 26.3 392.426 25.9 392.726 25.6C393.126 25.2 393.576 25 394.076 25H411.626C412.126 25 412.526 25.2 412.826 25.6C413.226 25.9 413.426 26.3 413.426 26.8V64.6C413.426 65 413.526 65.25 413.726 65.35C414.026 65.35 414.226 65.15 414.326 64.75L433.676 26.35C434.176 25.45 434.876 25 435.776 25H454.376C455.076 25 455.526 25.2 455.726 25.6C456.026 25.9 456.026 26.4 455.726 27.1L433.526 70.3C433.426 70.7 433.376 71 433.376 71.2L456.926 127.9C457.026 128.1 457.076 128.4 457.076 128.8C457.076 129.6 456.576 130 455.576 130H436.826C435.726 130 435.026 129.55 434.726 128.65L419.126 89.35C419.026 89.05 418.876 88.95 418.676 89.05C418.476 89.05 418.276 89.15 418.076 89.35L413.726 97.15C413.526 97.55 413.426 97.85 413.426 98.05V128.2C413.426 128.7 413.226 129.15 412.826 129.55C412.526 129.85 412.126 130 411.626 130H394.076ZM489.057 129.85C488.557 129.85 488.107 129.7 487.707 129.4C487.407 129 487.257 128.55 487.257 128.05V89.05L487.107 88.15L466.107 27.1C466.007 26.9 465.957 26.65 465.957 26.35C465.957 25.45 466.507 25 467.607 25H486.057C487.157 25 487.857 25.5 488.157 26.5L497.457 62.35C497.557 62.65 497.707 62.8 497.907 62.8C498.107 62.8 498.257 62.65 498.357 62.35L507.657 26.5C507.957 25.5 508.657 25 509.757 25H528.207C528.807 25 529.257 25.2 529.557 25.6C529.857 25.9 529.907 26.4 529.707 27.1L508.557 88.15L508.407 89.05V128.05C508.407 128.55 508.207 129 507.807 129.4C507.507 129.7 507.107 129.85 506.607 129.85H489.057ZM48 264C46.9 264 46.2 263.5 45.9 262.5L34.35 221.1C34.15 220.7 33.9 220.5 33.6 220.5H28.5C28 220.5 27.75 220.75 27.75 221.25V262.2C27.75 262.7 27.55 263.15 27.15 263.55C26.85 263.85 26.45 264 25.95 264H8.4C7.9 264 7.45 263.85 7.05 263.55C6.75 263.15 6.6 262.7 6.6 262.2V160.8C6.6 160.3 6.75 159.9 7.05 159.6C7.45 159.2 7.9 159 8.4 159H38.7C44.2 159 49.1 160.35 53.4 163.05C57.7 165.65 61 169.35 63.3 174.15C65.7 178.95 66.9 184.45 66.9 190.65C66.9 196.55 65.75 201.75 63.45 206.25C61.25 210.75 58.15 214.25 54.15 216.75C53.95 216.85 53.8 217 53.7 217.2C53.6 217.3 53.6 217.45 53.7 217.65L67.5 261.9L67.65 262.5C67.65 263.5 67.1 264 66 264H48ZM28.5 177.15C28 177.15 27.75 177.4 27.75 177.9V203.55C27.75 204.05 28 204.3 28.5 204.3H35.25C38.35 204.3 40.85 203.1 42.75 200.7C44.75 198.2 45.75 194.9 45.75 190.8C45.75 186.6 44.75 183.3 42.75 180.9C40.85 178.4 38.35 177.15 35.25 177.15H28.5ZM135.255 175.35C135.255 175.85 135.055 176.3 134.655 176.7C134.355 177 133.955 177.15 133.455 177.15H102.105C101.605 177.15 101.355 177.4 101.355 177.9V201.6C101.355 202.1 101.605 202.35 102.105 202.35H120.105C120.605 202.35 121.005 202.55 121.305 202.95C121.705 203.25 121.905 203.65 121.905 204.15V218.7C121.905 219.2 121.705 219.65 121.305 220.05C121.005 220.35 120.605 220.5 120.105 220.5H102.105C101.605 220.5 101.355 220.75 101.355 221.25V245.1C101.355 245.6 101.605 245.85 102.105 245.85H133.455C133.955 245.85 134.355 246.05 134.655 246.45C135.055 246.75 135.255 247.15 135.255 247.65V262.2C135.255 262.7 135.055 263.15 134.655 263.55C134.355 263.85 133.955 264 133.455 264H82.0055C81.5055 264 81.0555 263.85 80.6555 263.55C80.3555 263.15 80.2055 262.7 80.2055 262.2V160.8C80.2055 160.3 80.3555 159.9 80.6555 159.6C81.0555 159.2 81.5055 159 82.0055 159H133.455C133.955 159 134.355 159.2 134.655 159.6C135.055 159.9 135.255 160.3 135.255 160.8V175.35ZM195.421 264C194.221 264 193.571 263.45 193.471 262.35L191.071 247.95C191.071 247.45 190.771 247.2 190.171 247.2H171.121C170.521 247.2 170.221 247.45 170.221 247.95L167.821 262.35C167.721 263.45 167.071 264 165.871 264H148.321C147.021 264 146.521 263.35 146.821 262.05L168.871 160.65C169.071 159.55 169.721 159 170.821 159H191.071C192.171 159 192.821 159.55 193.021 160.65L214.921 262.05L215.071 262.65C215.071 263.55 214.521 264 213.421 264H195.421ZM173.221 230.1C173.221 230.6 173.421 230.85 173.821 230.85H187.321C187.821 230.85 188.021 230.6 187.921 230.1L180.871 189.15C180.771 188.85 180.621 188.7 180.421 188.7C180.221 188.7 180.071 188.85 179.971 189.15L173.221 230.1ZM228.484 264C227.984 264 227.534 263.85 227.134 263.55C226.834 263.15 226.684 262.7 226.684 262.2V160.8C226.684 160.3 226.834 159.9 227.134 159.6C227.534 159.2 227.984 159 228.484 159H246.034C246.534 159 246.934 159.2 247.234 159.6C247.634 159.9 247.834 160.3 247.834 160.8V245.1C247.834 245.6 248.084 245.85 248.584 245.85H280.084C280.584 245.85 280.984 246.05 281.284 246.45C281.684 246.75 281.884 247.15 281.884 247.65V262.2C281.884 262.7 281.684 263.15 281.284 263.55C280.984 263.85 280.584 264 280.084 264H228.484ZM381.63 175.35C381.63 175.85 381.43 176.3 381.03 176.7C380.73 177 380.33 177.15 379.83 177.15H348.48C347.98 177.15 347.73 177.4 347.73 177.9V201.6C347.73 202.1 347.98 202.35 348.48 202.35H366.48C366.98 202.35 367.38 202.55 367.68 202.95C368.08 203.25 368.28 203.65 368.28 204.15V218.7C368.28 219.2 368.08 219.65 367.68 220.05C367.38 220.35 366.98 220.5 366.48 220.5H348.48C347.98 220.5 347.73 220.75 347.73 221.25V245.1C347.73 245.6 347.98 245.85 348.48 245.85H379.83C380.33 245.85 380.73 246.05 381.03 246.45C381.43 246.75 381.63 247.15 381.63 247.65V262.2C381.63 262.7 381.43 263.15 381.03 263.55C380.73 263.85 380.33 264 379.83 264H328.38C327.88 264 327.43 263.85 327.03 263.55C326.73 263.15 326.58 262.7 326.58 262.2V160.8C326.58 160.3 326.73 159.9 327.03 159.6C327.43 159.2 327.88 159 328.38 159H379.83C380.33 159 380.73 159.2 381.03 159.6C381.43 159.9 381.63 160.3 381.63 160.8V175.35ZM422.352 265.2C416.552 265.2 411.452 264.05 407.052 261.75C402.652 259.45 399.252 256.25 396.852 252.15C394.452 247.95 393.252 243.15 393.252 237.75V233.4C393.252 232.9 393.402 232.5 393.702 232.2C394.102 231.8 394.552 231.6 395.052 231.6H412.302C412.802 231.6 413.202 231.8 413.502 232.2C413.902 232.5 414.102 232.9 414.102 233.4V236.7C414.102 239.8 414.902 242.3 416.502 244.2C418.102 246.1 420.102 247.05 422.502 247.05C424.902 247.05 426.902 246.15 428.502 244.35C430.102 242.55 430.902 240.2 430.902 237.3C430.902 234.3 429.902 231.75 427.902 229.65C425.902 227.45 422.002 224.25 416.202 220.05C411.202 216.45 407.152 213.25 404.052 210.45C400.952 207.65 398.302 204.2 396.102 200.1C393.902 196 392.802 191.25 392.802 185.85C392.802 177.35 395.452 170.55 400.752 165.45C406.052 160.35 413.052 157.8 421.752 157.8C430.552 157.8 437.602 160.45 442.902 165.75C448.302 171.05 451.002 178 451.002 186.6V190.2C451.002 190.7 450.802 191.15 450.402 191.55C450.102 191.85 449.702 192 449.202 192H431.952C431.452 192 431.002 191.85 430.602 191.55C430.302 191.15 430.152 190.7 430.152 190.2V186.15C430.152 183.05 429.352 180.6 427.752 178.8C426.252 176.9 424.252 175.95 421.752 175.95C419.352 175.95 417.402 176.85 415.902 178.65C414.402 180.35 413.652 182.75 413.652 185.85C413.652 188.85 414.602 191.5 416.502 193.8C418.402 196.1 422.152 199.3 427.752 203.4C433.952 208 438.602 211.75 441.702 214.65C444.902 217.45 447.352 220.6 449.052 224.1C450.852 227.5 451.752 231.6 451.752 236.4C451.752 245.2 449.052 252.2 443.652 257.4C438.252 262.6 431.152 265.2 422.352 265.2ZM522.323 159C522.823 159 523.223 159.2 523.523 159.6C523.923 159.9 524.123 160.3 524.123 160.8V175.35C524.123 175.85 523.923 176.3 523.523 176.7C523.223 177 522.823 177.15 522.323 177.15H503.573C503.073 177.15 502.823 177.4 502.823 177.9V262.2C502.823 262.7 502.623 263.15 502.223 263.55C501.923 263.85 501.523 264 501.023 264H483.473C482.973 264 482.523 263.85 482.123 263.55C481.823 263.15 481.673 262.7 481.673 262.2V177.9C481.673 177.4 481.423 177.15 480.923 177.15H462.923C462.423 177.15 461.973 177 461.573 176.7C461.273 176.3 461.123 175.85 461.123 175.35V160.8C461.123 160.3 461.273 159.9 461.573 159.6C461.973 159.2 462.423 159 462.923 159H522.323ZM573.186 264C571.986 264 571.336 263.45 571.236 262.35L568.836 247.95C568.836 247.45 568.536 247.2 567.936 247.2H548.886C548.286 247.2 547.986 247.45 547.986 247.95L545.586 262.35C545.486 263.45 544.836 264 543.636 264H526.086C524.786 264 524.286 263.35 524.586 262.05L546.636 160.65C546.836 159.55 547.486 159 548.586 159H568.836C569.936 159 570.586 159.55 570.786 160.65L592.686 262.05L592.836 262.65C592.836 263.55 592.286 264 591.186 264H573.186ZM550.986 230.1C550.986 230.6 551.186 230.85 551.586 230.85H565.086C565.586 230.85 565.786 230.6 565.686 230.1L558.636 189.15C558.536 188.85 558.386 188.7 558.186 188.7C557.986 188.7 557.836 188.85 557.736 189.15L550.986 230.1ZM653.861 159C654.361 159 654.761 159.2 655.061 159.6C655.461 159.9 655.661 160.3 655.661 160.8V175.35C655.661 175.85 655.461 176.3 655.061 176.7C654.761 177 654.361 177.15 653.861 177.15H635.111C634.611 177.15 634.361 177.4 634.361 177.9V262.2C634.361 262.7 634.161 263.15 633.761 263.55C633.461 263.85 633.061 264 632.561 264H615.011C614.511 264 614.061 263.85 613.661 263.55C613.361 263.15 613.211 262.7 613.211 262.2V177.9C613.211 177.4 612.961 177.15 612.461 177.15H594.461C593.961 177.15 593.511 177 593.111 176.7C592.811 176.3 592.661 175.85 592.661 175.35V160.8C592.661 160.3 592.811 159.9 593.111 159.6C593.511 159.2 593.961 159 594.461 159H653.861ZM723.877 175.35C723.877 175.85 723.677 176.3 723.277 176.7C722.977 177 722.577 177.15 722.077 177.15H690.727C690.227 177.15 689.977 177.4 689.977 177.9V201.6C689.977 202.1 690.227 202.35 690.727 202.35H708.727C709.227 202.35 709.627 202.55 709.927 202.95C710.327 203.25 710.527 203.65 710.527 204.15V218.7C710.527 219.2 710.327 219.65 709.927 220.05C709.627 220.35 709.227 220.5 708.727 220.5H690.727C690.227 220.5 689.977 220.75 689.977 221.25V245.1C689.977 245.6 690.227 245.85 690.727 245.85H722.077C722.577 245.85 722.977 246.05 723.277 246.45C723.677 246.75 723.877 247.15 723.877 247.65V262.2C723.877 262.7 723.677 263.15 723.277 263.55C722.977 263.85 722.577 264 722.077 264H670.627C670.127 264 669.677 263.85 669.277 263.55C668.977 263.15 668.827 262.7 668.827 262.2V160.8C668.827 160.3 668.977 159.9 669.277 159.6C669.677 159.2 670.127 159 670.627 159H722.077C722.577 159 722.977 159.2 723.277 159.6C723.677 159.9 723.877 160.3 723.877 160.8V175.35Z" fill="#3769B1"/>
<path d="M19.84 351.576C16.7253 351.576 13.9733 350.936 11.584 349.656C9.19467 348.376 7.33867 346.584 6.016 344.28C4.69333 341.933 4.032 339.245 4.032 336.216V320.984C4.032 317.955 4.69333 315.288 6.016 312.984C7.33867 310.68 9.19467 308.888 11.584 307.608C13.9733 306.328 16.7253 305.688 19.84 305.688C22.9973 305.688 25.7707 306.328 28.16 307.608C30.5493 308.888 32.4053 310.68 33.728 312.984C35.0507 315.288 35.712 317.955 35.712 320.984V336.216C35.712 339.245 35.0507 341.933 33.728 344.28C32.4053 346.584 30.5493 348.376 28.16 349.656C25.7707 350.936 22.9973 351.576 19.84 351.576ZM19.84 346.264C22.7413 346.264 25.088 345.368 26.88 343.576C28.672 341.784 29.568 339.416 29.568 336.472V320.92C29.568 317.933 28.672 315.544 26.88 313.752C25.088 311.917 22.7413 311 19.84 311C16.9387 311 14.592 311.917 12.8 313.752C11.0507 315.544 10.176 317.933 10.176 320.92V336.472C10.176 339.416 11.0507 341.784 12.8 343.576C14.592 345.368 16.9387 346.264 19.84 346.264ZM58.6285 311.576C56.4952 311.576 55.0445 311.981 54.2765 312.792C53.5085 313.603 53.1245 315.139 53.1245 317.4V318.168C53.1245 318.339 53.2098 318.424 53.3805 318.424H60.1005C60.5272 318.424 60.7405 318.637 60.7405 319.064V323.416C60.7405 323.843 60.5272 324.056 60.1005 324.056H53.3805C53.2098 324.056 53.1245 324.141 53.1245 324.312V350.36C53.1245 350.787 52.9112 351 52.4845 351H47.6205C47.1938 351 46.9805 350.787 46.9805 350.36V324.312C46.9805 324.141 46.8952 324.056 46.7245 324.056H42.4365C42.0098 324.056 41.7965 323.843 41.7965 323.416V319.064C41.7965 318.637 42.0098 318.424 42.4365 318.424H46.7245C46.8952 318.424 46.9805 318.339 46.9805 318.168V317.016C46.9805 314.2 47.3005 312.024 47.9405 310.488C48.6232 308.952 49.7538 307.864 51.3325 307.224C52.9112 306.541 55.1298 306.2 57.9885 306.2H60.1645C60.5912 306.2 60.8045 306.413 60.8045 306.84V310.936C60.8045 311.363 60.5912 311.576 60.1645 311.576H58.6285ZM82.1285 311.576C79.9952 311.576 78.5445 311.981 77.7765 312.792C77.0085 313.603 76.6245 315.139 76.6245 317.4V318.168C76.6245 318.339 76.7098 318.424 76.8805 318.424H83.6005C84.0272 318.424 84.2405 318.637 84.2405 319.064V323.416C84.2405 323.843 84.0272 324.056 83.6005 324.056H76.8805C76.7098 324.056 76.6245 324.141 76.6245 324.312V350.36C76.6245 350.787 76.4112 351 75.9845 351H71.1205C70.6938 351 70.4805 350.787 70.4805 350.36V324.312C70.4805 324.141 70.3952 324.056 70.2245 324.056H65.9365C65.5098 324.056 65.2965 323.843 65.2965 323.416V319.064C65.2965 318.637 65.5098 318.424 65.9365 318.424H70.2245C70.3952 318.424 70.4805 318.339 70.4805 318.168V317.016C70.4805 314.2 70.8005 312.024 71.4405 310.488C72.1232 308.952 73.2538 307.864 74.8325 307.224C76.4112 306.541 78.6298 306.2 81.4885 306.2H83.6645C84.0912 306.2 84.3045 306.413 84.3045 306.84V310.936C84.3045 311.363 84.0912 311.576 83.6645 311.576H82.1285ZM115.036 330.648C115.206 332.397 115.27 334.36 115.228 336.536C115.228 336.963 115.014 337.176 114.588 337.176H94.1715C94.0008 337.176 93.9155 337.261 93.9155 337.432C93.9155 338.883 94.0435 339.992 94.2995 340.76C94.7688 342.467 95.7075 343.811 97.1155 344.792C98.5662 345.731 100.38 346.2 102.556 346.2C105.713 346.2 108.145 344.899 109.852 342.296C110.065 341.869 110.342 341.805 110.684 342.104L114.332 344.536C114.63 344.792 114.694 345.069 114.524 345.368C113.329 347.288 111.622 348.803 109.404 349.912C107.228 351.021 104.753 351.576 101.98 351.576C98.8648 351.576 96.2408 350.893 94.1075 349.528C91.9742 348.163 90.3742 346.221 89.3075 343.704C88.2835 341.187 87.7715 338.136 87.7715 334.552C87.7715 331.437 88.0062 329.069 88.4755 327.448C89.2435 324.504 90.7795 322.179 93.0835 320.472C95.3875 318.765 98.1822 317.912 101.468 317.912C105.777 317.912 108.998 319 111.132 321.176C113.265 323.309 114.566 326.467 115.036 330.648ZM101.468 323.224C99.6328 323.224 98.1182 323.693 96.9235 324.632C95.7288 325.528 94.9182 326.744 94.4915 328.28C94.1928 329.219 94.0008 330.413 93.9155 331.864C93.9155 332.035 94.0008 332.12 94.1715 332.12H108.828C108.998 332.12 109.084 332.035 109.084 331.864C108.998 330.456 108.87 329.411 108.7 328.728C108.273 327.064 107.42 325.741 106.14 324.76C104.902 323.736 103.345 323.224 101.468 323.224ZM137.252 318.104C138.617 318.104 139.855 318.381 140.964 318.936C141.263 319.064 141.369 319.32 141.284 319.704L140.26 324.504C140.217 324.888 139.961 325.016 139.492 324.888C138.767 324.589 137.913 324.44 136.932 324.44L136.036 324.504C134.031 324.589 132.367 325.293 131.044 326.616C129.764 327.896 129.124 329.581 129.124 331.672V350.36C129.124 350.787 128.911 351 128.484 351H123.62C123.193 351 122.98 350.787 122.98 350.36V319.064C122.98 318.637 123.193 318.424 123.62 318.424H128.484C128.911 318.424 129.124 318.637 129.124 319.064V322.456C129.124 322.584 129.145 322.669 129.188 322.712C129.273 322.712 129.337 322.669 129.38 322.584C131.3 319.597 133.924 318.104 137.252 318.104ZM150.442 313.304C149.247 313.304 148.266 312.92 147.498 312.152C146.73 311.384 146.346 310.403 146.346 309.208C146.346 308.013 146.73 307.032 147.498 306.264C148.266 305.496 149.247 305.112 150.442 305.112C151.637 305.112 152.618 305.496 153.386 306.264C154.154 307.032 154.538 308.013 154.538 309.208C154.538 310.403 154.154 311.384 153.386 312.152C152.618 312.92 151.637 313.304 150.442 313.304ZM147.882 350.936C147.455 350.936 147.242 350.723 147.242 350.296V319.064C147.242 318.637 147.455 318.424 147.882 318.424H152.746C153.173 318.424 153.386 318.637 153.386 319.064V350.296C153.386 350.723 153.173 350.936 152.746 350.936H147.882ZM177.571 317.976C181.069 317.976 183.843 319 185.891 321.048C187.939 323.053 188.963 325.784 188.963 329.24V350.36C188.963 350.787 188.749 351 188.323 351H183.459C183.032 351 182.819 350.787 182.819 350.36V330.456C182.819 328.323 182.2 326.595 180.963 325.272C179.725 323.949 178.083 323.288 176.035 323.288C174.029 323.288 172.387 323.949 171.107 325.272C169.827 326.595 169.187 328.301 169.187 330.392V350.36C169.187 350.787 168.973 351 168.547 351H163.683C163.256 351 163.043 350.787 163.043 350.36V319.064C163.043 318.637 163.256 318.424 163.683 318.424H168.547C168.973 318.424 169.187 318.637 169.187 319.064V321.368C169.187 321.453 169.208 321.517 169.251 321.56C169.336 321.603 169.4 321.581 169.443 321.496C171.277 319.149 173.987 317.976 177.571 317.976ZM217.762 319.064C217.762 318.637 217.975 318.424 218.402 318.424H223.266C223.693 318.424 223.906 318.637 223.906 319.064V349.336C223.906 354.499 222.434 358.189 219.49 360.408C216.589 362.627 212.685 363.736 207.778 363.736C207.095 363.736 206.029 363.693 204.578 363.608C204.151 363.565 203.938 363.331 203.938 362.904L204.13 358.488C204.13 358.317 204.194 358.168 204.322 358.04C204.45 357.912 204.621 357.869 204.834 357.912C205.431 357.955 206.306 357.976 207.458 357.976C211.085 357.976 213.709 357.293 215.33 355.928C216.951 354.605 217.762 352.344 217.762 349.144V347.992C217.762 347.907 217.719 347.843 217.634 347.8C217.591 347.757 217.527 347.779 217.442 347.864C215.65 349.955 213.026 351 209.57 351C206.797 351 204.279 350.275 202.018 348.824C199.799 347.373 198.263 345.24 197.41 342.424C196.855 340.547 196.578 337.944 196.578 334.616C196.578 331.075 196.898 328.344 197.538 326.424C198.349 323.864 199.778 321.816 201.826 320.28C203.917 318.701 206.37 317.912 209.186 317.912C212.685 317.912 215.437 318.979 217.442 321.112C217.527 321.197 217.591 321.24 217.634 321.24C217.719 321.197 217.762 321.133 217.762 321.048V319.064ZM217.378 340.568C217.506 339.885 217.591 339.16 217.634 338.392C217.719 337.624 217.762 336.344 217.762 334.552C217.762 332.76 217.719 331.501 217.634 330.776C217.591 330.008 217.485 329.283 217.314 328.6C216.973 327.021 216.205 325.741 215.01 324.76C213.815 323.736 212.322 323.224 210.53 323.224C208.738 323.224 207.245 323.736 206.05 324.76C204.855 325.741 204.002 327.021 203.49 328.6C203.021 329.88 202.786 331.864 202.786 334.552C202.786 337.496 202.999 339.501 203.426 340.568C203.853 342.147 204.685 343.448 205.922 344.472C207.202 345.453 208.738 345.944 210.53 345.944C212.407 345.944 213.922 345.453 215.074 344.472C216.269 343.448 217.037 342.147 217.378 340.568ZM258.605 351.512C255.447 351.512 252.695 350.723 250.349 349.144C248.002 347.523 246.359 345.283 245.421 342.424C244.653 340.12 244.269 337.517 244.269 334.616C244.269 331.587 244.631 329.027 245.357 326.936C246.295 324.12 247.938 321.923 250.285 320.344C252.631 318.723 255.426 317.912 258.669 317.912C261.741 317.912 264.407 318.723 266.669 320.344C268.973 321.923 270.615 324.099 271.597 326.872C272.365 329.048 272.749 331.608 272.749 334.552C272.749 337.539 272.365 340.163 271.597 342.424C270.658 345.283 269.037 347.523 266.733 349.144C264.429 350.723 261.719 351.512 258.605 351.512ZM258.605 346.2C260.311 346.2 261.805 345.731 263.085 344.792C264.365 343.811 265.282 342.445 265.837 340.696C266.306 339.075 266.541 337.069 266.541 334.68C266.541 332.291 266.327 330.307 265.901 328.728C265.346 326.979 264.429 325.635 263.149 324.696C261.869 323.715 260.311 323.224 258.477 323.224C256.727 323.224 255.213 323.715 253.933 324.696C252.653 325.635 251.735 326.979 251.181 328.728C250.711 330.221 250.477 332.205 250.477 334.68C250.477 337.155 250.711 339.16 251.181 340.696C251.693 342.445 252.589 343.811 253.869 344.792C255.191 345.731 256.77 346.2 258.605 346.2ZM286.525 351C286.183 351 285.949 350.829 285.821 350.488L276.605 319.128L276.541 318.936C276.541 318.595 276.754 318.424 277.181 318.424H282.173C282.557 318.424 282.791 318.616 282.877 319L288.957 342.232C288.999 342.317 289.042 342.36 289.085 342.36C289.17 342.36 289.234 342.317 289.277 342.232L295.485 319C295.57 318.616 295.805 318.424 296.189 318.424H300.605C300.989 318.424 301.223 318.616 301.309 319L307.645 342.168C307.687 342.253 307.73 342.296 307.773 342.296C307.858 342.296 307.922 342.253 307.965 342.168L314.301 319C314.386 318.616 314.621 318.424 315.005 318.424L319.933 318.488C320.146 318.488 320.295 318.552 320.381 318.68C320.509 318.808 320.551 318.979 320.509 319.192L311.229 350.488C311.101 350.829 310.866 351 310.525 351H305.533C305.191 351 304.957 350.829 304.829 350.488L298.557 328.856C298.514 328.771 298.45 328.728 298.365 328.728C298.322 328.728 298.279 328.771 298.237 328.856L292.285 350.424C292.199 350.808 291.965 351 291.581 351H286.525ZM341.383 317.976C344.882 317.976 347.655 319 349.703 321.048C351.751 323.053 352.775 325.784 352.775 329.24V350.36C352.775 350.787 352.562 351 352.135 351H347.271C346.844 351 346.631 350.787 346.631 350.36V330.456C346.631 328.323 346.012 326.595 344.775 325.272C343.538 323.949 341.895 323.288 339.847 323.288C337.842 323.288 336.199 323.949 334.919 325.272C333.639 326.595 332.999 328.301 332.999 330.392V350.36C332.999 350.787 332.786 351 332.359 351H327.495C327.068 351 326.855 350.787 326.855 350.36V319.064C326.855 318.637 327.068 318.424 327.495 318.424H332.359C332.786 318.424 332.999 318.637 332.999 319.064V321.368C332.999 321.453 333.02 321.517 333.063 321.56C333.148 321.603 333.212 321.581 333.255 321.496C335.09 319.149 337.799 317.976 341.383 317.976ZM387.536 330.648C387.706 332.397 387.77 334.36 387.728 336.536C387.728 336.963 387.514 337.176 387.088 337.176H366.672C366.501 337.176 366.416 337.261 366.416 337.432C366.416 338.883 366.544 339.992 366.8 340.76C367.269 342.467 368.208 343.811 369.616 344.792C371.066 345.731 372.88 346.2 375.056 346.2C378.213 346.2 380.645 344.899 382.352 342.296C382.565 341.869 382.842 341.805 383.184 342.104L386.832 344.536C387.13 344.792 387.194 345.069 387.024 345.368C385.829 347.288 384.122 348.803 381.904 349.912C379.728 351.021 377.253 351.576 374.48 351.576C371.365 351.576 368.741 350.893 366.608 349.528C364.474 348.163 362.874 346.221 361.808 343.704C360.784 341.187 360.272 338.136 360.272 334.552C360.272 331.437 360.506 329.069 360.976 327.448C361.744 324.504 363.28 322.179 365.584 320.472C367.888 318.765 370.682 317.912 373.968 317.912C378.277 317.912 381.498 319 383.632 321.176C385.765 323.309 387.066 326.467 387.536 330.648ZM373.968 323.224C372.133 323.224 370.618 323.693 369.424 324.632C368.229 325.528 367.418 326.744 366.992 328.28C366.693 329.219 366.501 330.413 366.416 331.864C366.416 332.035 366.501 332.12 366.672 332.12H381.328C381.498 332.12 381.584 332.035 381.584 331.864C381.498 330.456 381.37 329.411 381.2 328.728C380.773 327.064 379.92 325.741 378.64 324.76C377.402 323.736 375.845 323.224 373.968 323.224ZM409.752 318.104C411.117 318.104 412.355 318.381 413.464 318.936C413.763 319.064 413.869 319.32 413.784 319.704L412.76 324.504C412.717 324.888 412.461 325.016 411.992 324.888C411.267 324.589 410.413 324.44 409.432 324.44L408.536 324.504C406.531 324.589 404.867 325.293 403.544 326.616C402.264 327.896 401.624 329.581 401.624 331.672V350.36C401.624 350.787 401.411 351 400.984 351H396.12C395.693 351 395.48 350.787 395.48 350.36V319.064C395.48 318.637 395.693 318.424 396.12 318.424H400.984C401.411 318.424 401.624 318.637 401.624 319.064V322.456C401.624 322.584 401.645 322.669 401.688 322.712C401.773 322.712 401.837 322.669 401.88 322.584C403.8 319.597 406.424 318.104 409.752 318.104ZM446.378 311.576C444.245 311.576 442.795 311.981 442.027 312.792C441.259 313.603 440.875 315.139 440.875 317.4V318.168C440.875 318.339 440.96 318.424 441.131 318.424H447.851C448.277 318.424 448.491 318.637 448.491 319.064V323.416C448.491 323.843 448.277 324.056 447.851 324.056H441.131C440.96 324.056 440.875 324.141 440.875 324.312V350.36C440.875 350.787 440.661 351 440.235 351H435.371C434.944 351 434.731 350.787 434.731 350.36V324.312C434.731 324.141 434.645 324.056 434.475 324.056H430.187C429.76 324.056 429.547 323.843 429.547 323.416V319.064C429.547 318.637 429.76 318.424 430.187 318.424H434.475C434.645 318.424 434.731 318.339 434.731 318.168V317.016C434.731 314.2 435.051 312.024 435.691 310.488C436.373 308.952 437.504 307.864 439.083 307.224C440.661 306.541 442.88 306.2 445.739 306.2H447.915C448.341 306.2 448.555 306.413 448.555 306.84V310.936C448.555 311.363 448.341 311.576 447.915 311.576H446.378ZM459.243 313.304C458.048 313.304 457.067 312.92 456.299 312.152C455.531 311.384 455.147 310.403 455.147 309.208C455.147 308.013 455.531 307.032 456.299 306.264C457.067 305.496 458.048 305.112 459.243 305.112C460.437 305.112 461.419 305.496 462.187 306.264C462.955 307.032 463.339 308.013 463.339 309.208C463.339 310.403 462.955 311.384 462.187 312.152C461.419 312.92 460.437 313.304 459.243 313.304ZM456.683 350.936C456.256 350.936 456.043 350.723 456.043 350.296V319.064C456.043 318.637 456.256 318.424 456.683 318.424H461.547C461.973 318.424 462.187 318.637 462.187 319.064V350.296C462.187 350.723 461.973 350.936 461.547 350.936H456.683ZM486.383 317.976C489.882 317.976 492.655 319 494.703 321.048C496.751 323.053 497.775 325.784 497.775 329.24V350.36C497.775 350.787 497.562 351 497.135 351H492.271C491.844 351 491.631 350.787 491.631 350.36V330.456C491.631 328.323 491.012 326.595 489.775 325.272C488.538 323.949 486.895 323.288 484.847 323.288C482.842 323.288 481.199 323.949 479.919 325.272C478.639 326.595 477.999 328.301 477.999 330.392V350.36C477.999 350.787 477.786 351 477.359 351H472.495C472.068 351 471.855 350.787 471.855 350.36V319.064C471.855 318.637 472.068 318.424 472.495 318.424H477.359C477.786 318.424 477.999 318.637 477.999 319.064V321.368C477.999 321.453 478.02 321.517 478.063 321.56C478.148 321.603 478.212 321.581 478.255 321.496C480.09 319.149 482.799 317.976 486.383 317.976ZM518.447 317.912C521.049 317.912 523.311 318.381 525.231 319.32C527.193 320.216 528.687 321.496 529.711 323.16C530.777 324.781 531.311 326.637 531.311 328.728V350.36C531.311 350.787 531.097 351 530.671 351H525.807C525.38 351 525.167 350.787 525.167 350.36V348.056C525.167 347.843 525.06 347.8 524.847 347.928C523.737 349.08 522.372 349.976 520.751 350.616C519.172 351.213 517.401 351.512 515.439 351.512C512.281 351.512 509.657 350.723 507.567 349.144C505.519 347.523 504.495 345.091 504.495 341.848C504.495 338.52 505.647 335.917 507.951 334.04C510.297 332.12 513.561 331.16 517.743 331.16H524.911C525.081 331.16 525.167 331.075 525.167 330.904V329.176C525.167 327.299 524.612 325.848 523.503 324.824C522.436 323.757 520.793 323.224 518.575 323.224C516.783 323.224 515.311 323.587 514.159 324.312C513.049 324.995 512.367 325.933 512.111 327.128C511.983 327.555 511.727 327.747 511.343 327.704L506.159 327C505.732 326.915 505.54 326.744 505.583 326.488C505.924 323.971 507.268 321.923 509.615 320.344C511.961 318.723 514.905 317.912 518.447 317.912ZM516.783 346.328C519.044 346.328 521.007 345.731 522.671 344.536C524.335 343.341 525.167 341.827 525.167 339.992V336.216C525.167 336.045 525.081 335.96 524.911 335.96H518.895C516.377 335.96 514.372 336.451 512.879 337.432C511.385 338.413 510.639 339.779 510.639 341.528C510.639 343.107 511.193 344.301 512.303 345.112C513.455 345.923 514.948 346.328 516.783 346.328ZM554.133 317.976C557.632 317.976 560.405 319 562.453 321.048C564.501 323.053 565.525 325.784 565.525 329.24V350.36C565.525 350.787 565.312 351 564.885 351H560.021C559.594 351 559.381 350.787 559.381 350.36V330.456C559.381 328.323 558.762 326.595 557.525 325.272C556.288 323.949 554.645 323.288 552.597 323.288C550.592 323.288 548.949 323.949 547.669 325.272C546.389 326.595 545.749 328.301 545.749 330.392V350.36C545.749 350.787 545.536 351 545.109 351H540.245C539.818 351 539.605 350.787 539.605 350.36V319.064C539.605 318.637 539.818 318.424 540.245 318.424H545.109C545.536 318.424 545.749 318.637 545.749 319.064V321.368C545.749 321.453 545.77 321.517 545.813 321.56C545.898 321.603 545.962 321.581 546.005 321.496C547.84 319.149 550.549 317.976 554.133 317.976ZM586.974 351.512C583.731 351.512 580.958 350.701 578.654 349.08C576.35 347.416 574.771 345.176 573.918 342.36C573.278 340.397 572.958 337.816 572.958 334.616C572.958 331.672 573.278 329.091 573.918 326.872C574.771 324.141 576.35 321.965 578.654 320.344C581 318.723 583.774 317.912 586.974 317.912C590.174 317.912 592.968 318.723 595.358 320.344C597.747 321.965 599.304 324.013 600.03 326.488C600.286 327.171 600.456 327.875 600.542 328.6C600.542 328.941 600.35 329.155 599.966 329.24L595.166 329.944H595.038C594.739 329.944 594.526 329.752 594.398 329.368L594.206 328.344C593.864 326.893 593.032 325.677 591.71 324.696C590.387 323.715 588.787 323.224 586.91 323.224C585.075 323.224 583.518 323.715 582.238 324.696C580.958 325.677 580.126 326.979 579.742 328.6C579.358 330.136 579.166 332.163 579.166 334.68C579.166 337.155 579.358 339.16 579.742 340.696C580.168 342.403 581 343.747 582.238 344.728C583.518 345.709 585.075 346.2 586.91 346.2C588.787 346.2 590.387 345.709 591.71 344.728C593.075 343.747 593.928 342.467 594.27 340.888C594.312 340.845 594.312 340.803 594.27 340.76C594.27 340.675 594.291 340.611 594.334 340.568V340.312C594.462 339.971 594.696 339.843 595.038 339.928L599.838 340.696C600.179 340.781 600.35 340.952 600.35 341.208V341.464C600.35 341.848 600.243 342.317 600.03 342.872C599.304 345.475 597.747 347.565 595.358 349.144C592.968 350.723 590.174 351.512 586.974 351.512ZM611.317 313.304C610.122 313.304 609.141 312.92 608.373 312.152C607.605 311.384 607.221 310.403 607.221 309.208C607.221 308.013 607.605 307.032 608.373 306.264C609.141 305.496 610.122 305.112 611.317 305.112C612.512 305.112 613.493 305.496 614.261 306.264C615.029 307.032 615.413 308.013 615.413 309.208C615.413 310.403 615.029 311.384 614.261 312.152C613.493 312.92 612.512 313.304 611.317 313.304ZM608.757 350.936C608.33 350.936 608.117 350.723 608.117 350.296V319.064C608.117 318.637 608.33 318.424 608.757 318.424H613.621C614.048 318.424 614.261 318.637 614.261 319.064V350.296C614.261 350.723 614.048 350.936 613.621 350.936H608.757ZM638.446 317.976C641.944 317.976 644.718 319 646.766 321.048C648.814 323.053 649.838 325.784 649.838 329.24V350.36C649.838 350.787 649.624 351 649.198 351H644.334C643.907 351 643.694 350.787 643.694 350.36V330.456C643.694 328.323 643.075 326.595 641.838 325.272C640.6 323.949 638.958 323.288 636.91 323.288C634.904 323.288 633.262 323.949 631.982 325.272C630.702 326.595 630.062 328.301 630.062 330.392V350.36C630.062 350.787 629.848 351 629.422 351H624.558C624.131 351 623.918 350.787 623.918 350.36V319.064C623.918 318.637 624.131 318.424 624.558 318.424H629.422C629.848 318.424 630.062 318.637 630.062 319.064V321.368C630.062 321.453 630.083 321.517 630.126 321.56C630.211 321.603 630.275 321.581 630.318 321.496C632.152 319.149 634.862 317.976 638.446 317.976ZM678.637 319.064C678.637 318.637 678.85 318.424 679.277 318.424H684.141C684.568 318.424 684.781 318.637 684.781 319.064V349.336C684.781 354.499 683.309 358.189 680.365 360.408C677.464 362.627 673.56 363.736 668.653 363.736C667.97 363.736 666.904 363.693 665.453 363.608C665.026 363.565 664.813 363.331 664.813 362.904L665.005 358.488C665.005 358.317 665.069 358.168 665.197 358.04C665.325 357.912 665.496 357.869 665.709 357.912C666.306 357.955 667.181 357.976 668.333 357.976C671.96 357.976 674.584 357.293 676.205 355.928C677.826 354.605 678.637 352.344 678.637 349.144V347.992C678.637 347.907 678.594 347.843 678.509 347.8C678.466 347.757 678.402 347.779 678.317 347.864C676.525 349.955 673.901 351 670.445 351C667.672 351 665.154 350.275 662.893 348.824C660.674 347.373 659.138 345.24 658.285 342.424C657.73 340.547 657.453 337.944 657.453 334.616C657.453 331.075 657.773 328.344 658.413 326.424C659.224 323.864 660.653 321.816 662.701 320.28C664.792 318.701 667.245 317.912 670.061 317.912C673.56 317.912 676.312 318.979 678.317 321.112C678.402 321.197 678.466 321.24 678.509 321.24C678.594 321.197 678.637 321.133 678.637 321.048V319.064ZM678.253 340.568C678.381 339.885 678.466 339.16 678.509 338.392C678.594 337.624 678.637 336.344 678.637 334.552C678.637 332.76 678.594 331.501 678.509 330.776C678.466 330.008 678.36 329.283 678.189 328.6C677.848 327.021 677.08 325.741 675.885 324.76C674.69 323.736 673.197 323.224 671.405 323.224C669.613 323.224 668.12 323.736 666.925 324.76C665.73 325.741 664.877 327.021 664.365 328.6C663.896 329.88 663.661 331.864 663.661 334.552C663.661 337.496 663.874 339.501 664.301 340.568C664.728 342.147 665.56 343.448 666.797 344.472C668.077 345.453 669.613 345.944 671.405 345.944C673.282 345.944 674.797 345.453 675.949 344.472C677.144 343.448 677.912 342.147 678.253 340.568ZM709.88 313.304C708.685 313.304 707.704 312.92 706.936 312.152C706.168 311.384 705.784 310.403 705.784 309.208C705.784 308.013 706.168 307.032 706.936 306.264C707.704 305.496 708.685 305.112 709.88 305.112C711.074 305.112 712.056 305.496 712.824 306.264C713.592 307.032 713.976 308.013 713.976 309.208C713.976 310.403 713.592 311.384 712.824 312.152C712.056 312.92 711.074 313.304 709.88 313.304ZM707.32 350.936C706.893 350.936 706.68 350.723 706.68 350.296V319.064C706.68 318.637 706.893 318.424 707.32 318.424H712.184C712.61 318.424 712.824 318.637 712.824 319.064V350.296C712.824 350.723 712.61 350.936 712.184 350.936H707.32ZM737.008 317.976C740.507 317.976 743.28 319 745.328 321.048C747.376 323.053 748.4 325.784 748.4 329.24V350.36C748.4 350.787 748.187 351 747.76 351H742.896C742.469 351 742.256 350.787 742.256 350.36V330.456C742.256 328.323 741.637 326.595 740.4 325.272C739.163 323.949 737.52 323.288 735.472 323.288C733.467 323.288 731.824 323.949 730.544 325.272C729.264 326.595 728.624 328.301 728.624 330.392V350.36C728.624 350.787 728.411 351 727.984 351H723.12C722.693 351 722.48 350.787 722.48 350.36V319.064C722.48 318.637 722.693 318.424 723.12 318.424H727.984C728.411 318.424 728.624 318.637 728.624 319.064V321.368C728.624 321.453 728.645 321.517 728.688 321.56C728.773 321.603 728.837 321.581 728.88 321.496C730.715 319.149 733.424 317.976 737.008 317.976ZM779.9 351C779.516 351 779.281 350.829 779.196 350.488L767.164 306.904L767.1 306.712C767.1 306.371 767.313 306.2 767.74 306.2H772.924C773.308 306.2 773.543 306.392 773.628 306.776L782.012 338.648C782.055 338.733 782.097 338.776 782.14 338.776C782.225 338.776 782.289 338.733 782.332 338.648L790.268 306.776C790.353 306.392 790.588 306.2 790.972 306.2H796.028C796.412 306.2 796.647 306.392 796.732 306.776L805.116 338.712C805.159 338.797 805.201 338.84 805.244 338.84C805.287 338.84 805.329 338.797 805.372 338.712L813.82 306.776C813.905 306.392 814.14 306.2 814.524 306.2H819.388C819.601 306.2 819.751 306.264 819.836 306.392C819.964 306.52 820.007 306.691 819.964 306.904L808.38 350.424C808.295 350.808 808.06 351 807.676 351H802.748C802.364 351 802.129 350.808 802.044 350.424L793.66 317.4C793.617 317.272 793.575 317.208 793.532 317.208C793.489 317.208 793.447 317.272 793.404 317.4L785.276 350.424C785.233 350.808 784.999 351 784.572 351H779.9ZM849.161 330.648C849.331 332.397 849.395 334.36 849.353 336.536C849.353 336.963 849.139 337.176 848.713 337.176H828.297C828.126 337.176 828.041 337.261 828.041 337.432C828.041 338.883 828.169 339.992 828.425 340.76C828.894 342.467 829.833 343.811 831.241 344.792C832.691 345.731 834.505 346.2 836.681 346.2C839.838 346.2 842.27 344.899 843.977 342.296C844.19 341.869 844.467 341.805 844.809 342.104L848.457 344.536C848.755 344.792 848.819 345.069 848.649 345.368C847.454 347.288 845.747 348.803 843.529 349.912C841.353 351.021 838.878 351.576 836.105 351.576C832.99 351.576 830.366 350.893 828.233 349.528C826.099 348.163 824.499 346.221 823.433 343.704C822.409 341.187 821.897 338.136 821.897 334.552C821.897 331.437 822.131 329.069 822.601 327.448C823.369 324.504 824.905 322.179 827.209 320.472C829.513 318.765 832.307 317.912 835.593 317.912C839.902 317.912 843.123 319 845.257 321.176C847.39 323.309 848.691 326.467 849.161 330.648ZM835.593 323.224C833.758 323.224 832.243 323.693 831.049 324.632C829.854 325.528 829.043 326.744 828.617 328.28C828.318 329.219 828.126 330.413 828.041 331.864C828.041 332.035 828.126 332.12 828.297 332.12H842.953C843.123 332.12 843.209 332.035 843.209 331.864C843.123 330.456 842.995 329.411 842.825 328.728C842.398 327.064 841.545 325.741 840.265 324.76C839.027 323.736 837.47 323.224 835.593 323.224ZM868.061 351.384C865.501 351.384 863.24 351 861.277 350.232C859.357 349.464 857.864 348.419 856.797 347.096C855.73 345.731 855.197 344.237 855.197 342.616V341.912C855.197 341.485 855.41 341.272 855.837 341.272H860.445C860.872 341.272 861.085 341.485 861.085 341.912V342.232C861.085 343.427 861.725 344.472 863.005 345.368C864.328 346.264 865.992 346.712 867.997 346.712C869.917 346.712 871.474 346.307 872.669 345.496C873.864 344.643 874.461 343.576 874.461 342.296C874.461 341.059 873.906 340.141 872.797 339.544C871.688 338.904 869.896 338.243 867.421 337.56C864.989 336.877 862.941 336.195 861.277 335.512C859.656 334.787 858.269 333.784 857.117 332.504C856.008 331.181 855.453 329.496 855.453 327.448C855.453 324.589 856.562 322.328 858.781 320.664C861.042 318.957 864.029 318.104 867.741 318.104C870.216 318.104 872.392 318.509 874.269 319.32C876.189 320.088 877.661 321.176 878.685 322.584C879.709 323.992 880.221 325.571 880.221 327.32V327.512C880.221 327.939 880.008 328.152 879.581 328.152H875.101C874.674 328.152 874.461 327.939 874.461 327.512V327.32C874.461 326.083 873.842 325.059 872.605 324.248C871.41 323.395 869.768 322.968 867.677 322.968C865.8 322.968 864.264 323.331 863.069 324.056C861.917 324.781 861.341 325.763 861.341 327C861.341 328.237 861.896 329.176 863.005 329.816C864.157 330.456 865.992 331.139 868.509 331.864C870.984 332.547 873.032 333.229 874.653 333.912C876.317 334.552 877.725 335.533 878.877 336.856C880.029 338.136 880.605 339.821 880.605 341.912C880.605 344.813 879.453 347.117 877.149 348.824C874.888 350.531 871.858 351.384 868.061 351.384ZM903.794 322.84C903.794 323.267 903.581 323.48 903.154 323.48H896.242C896.071 323.48 895.986 323.565 895.986 323.736V340.696C895.986 342.488 896.391 343.789 897.202 344.6C898.013 345.368 899.271 345.752 900.978 345.752H902.834C903.261 345.752 903.474 345.965 903.474 346.392V350.36C903.474 350.787 903.261 351 902.834 351C901.469 351.085 900.487 351.128 899.89 351.128C896.647 351.128 894.194 350.552 892.53 349.4C890.909 348.205 890.098 346.029 890.098 342.872V323.736C890.098 323.565 890.013 323.48 889.842 323.48H885.938C885.511 323.48 885.298 323.267 885.298 322.84V319.064C885.298 318.637 885.511 318.424 885.938 318.424H889.842C890.013 318.424 890.098 318.339 890.098 318.168V310.616C890.098 310.189 890.311 309.976 890.738 309.976H895.346C895.773 309.976 895.986 310.189 895.986 310.616V318.168C895.986 318.339 896.071 318.424 896.242 318.424H903.154C903.581 318.424 903.794 318.637 903.794 319.064V322.84ZM936.973 330.648C937.144 332.397 937.208 334.36 937.165 336.536C937.165 336.963 936.952 337.176 936.525 337.176H916.109C915.938 337.176 915.853 337.261 915.853 337.432C915.853 338.883 915.981 339.992 916.237 340.76C916.706 342.467 917.645 343.811 919.053 344.792C920.504 345.731 922.317 346.2 924.493 346.2C927.65 346.2 930.082 344.899 931.789 342.296C932.002 341.869 932.28 341.805 932.621 342.104L936.269 344.536C936.568 344.792 936.632 345.069 936.461 345.368C935.266 347.288 933.56 348.803 931.341 349.912C929.165 351.021 926.69 351.576 923.917 351.576C920.802 351.576 918.178 350.893 916.045 349.528C913.912 348.163 912.312 346.221 911.245 343.704C910.221 341.187 909.709 338.136 909.709 334.552C909.709 331.437 909.944 329.069 910.413 327.448C911.181 324.504 912.717 322.179 915.021 320.472C917.325 318.765 920.12 317.912 923.405 317.912C927.714 317.912 930.936 319 933.069 321.176C935.202 323.309 936.504 326.467 936.973 330.648ZM923.405 323.224C921.57 323.224 920.056 323.693 918.861 324.632C917.666 325.528 916.856 326.744 916.429 328.28C916.13 329.219 915.938 330.413 915.853 331.864C915.853 332.035 915.938 332.12 916.109 332.12H930.765C930.936 332.12 931.021 332.035 931.021 331.864C930.936 330.456 930.808 329.411 930.637 328.728C930.21 327.064 929.357 325.741 928.077 324.76C926.84 323.736 925.282 323.224 923.405 323.224ZM959.19 318.104C960.555 318.104 961.792 318.381 962.902 318.936C963.2 319.064 963.307 319.32 963.222 319.704L962.198 324.504C962.155 324.888 961.899 325.016 961.43 324.888C960.704 324.589 959.851 324.44 958.87 324.44L957.974 324.504C955.968 324.589 954.304 325.293 952.982 326.616C951.702 327.896 951.062 329.581 951.062 331.672V350.36C951.062 350.787 950.848 351 950.422 351H945.558C945.131 351 944.918 350.787 944.918 350.36V319.064C944.918 318.637 945.131 318.424 945.558 318.424H950.422C950.848 318.424 951.062 318.637 951.062 319.064V322.456C951.062 322.584 951.083 322.669 951.126 322.712C951.211 322.712 951.275 322.669 951.318 322.584C953.238 319.597 955.862 318.104 959.19 318.104ZM983.196 317.976C986.694 317.976 989.468 319 991.516 321.048C993.564 323.053 994.588 325.784 994.588 329.24V350.36C994.588 350.787 994.374 351 993.948 351H989.084C988.657 351 988.444 350.787 988.444 350.36V330.456C988.444 328.323 987.825 326.595 986.588 325.272C985.35 323.949 983.708 323.288 981.66 323.288C979.654 323.288 978.012 323.949 976.732 325.272C975.452 326.595 974.812 328.301 974.812 330.392V350.36C974.812 350.787 974.598 351 974.172 351H969.308C968.881 351 968.668 350.787 968.668 350.36V319.064C968.668 318.637 968.881 318.424 969.308 318.424H974.172C974.598 318.424 974.812 318.637 974.812 319.064V321.368C974.812 321.453 974.833 321.517 974.876 321.56C974.961 321.603 975.025 321.581 975.068 321.496C976.902 319.149 979.612 317.976 983.196 317.976ZM1002.1 356.504C1001.89 356.504 1001.72 356.44 1001.59 356.312C1001.5 356.184 1001.48 356.013 1001.52 355.8L1004.08 341.592C1004.17 341.208 1004.4 341.016 1004.79 341.016H1009.01C1009.23 341.016 1009.38 341.08 1009.46 341.208C1009.59 341.336 1009.63 341.507 1009.59 341.72L1005.81 355.928C1005.73 356.312 1005.49 356.504 1005.11 356.504H1002.1ZM1050.28 306.136C1052.89 306.136 1055.17 306.691 1057.13 307.8C1059.14 308.867 1060.67 310.381 1061.74 312.344C1062.85 314.307 1063.4 316.568 1063.4 319.128C1063.4 321.688 1062.85 323.928 1061.74 325.848C1060.63 327.768 1059.05 329.261 1057 330.328C1055 331.395 1052.67 331.928 1050.03 331.928H1038.76C1038.59 331.928 1038.51 332.013 1038.51 332.184V350.36C1038.51 350.787 1038.29 351 1037.87 351H1033C1032.58 351 1032.36 350.787 1032.36 350.36V306.776C1032.36 306.349 1032.58 306.136 1033 306.136H1050.28ZM1049.45 326.936C1051.8 326.936 1053.68 326.232 1055.08 324.824C1056.53 323.416 1057.26 321.56 1057.26 319.256C1057.26 316.909 1056.53 315.032 1055.08 313.624C1053.68 312.173 1051.8 311.448 1049.45 311.448H1038.76C1038.59 311.448 1038.51 311.533 1038.51 311.704V326.68C1038.51 326.851 1038.59 326.936 1038.76 326.936H1049.45ZM1095.64 351C1095.25 351 1095 350.829 1094.87 350.488L1092.56 343C1092.52 342.872 1092.44 342.808 1092.31 342.808H1074.32C1074.2 342.808 1074.11 342.872 1074.07 343L1071.76 350.488C1071.64 350.829 1071.38 351 1071 351H1065.81C1065.34 351 1065.17 350.765 1065.3 350.296L1079.32 306.712C1079.44 306.371 1079.7 306.2 1080.08 306.2H1086.48C1086.87 306.2 1087.12 306.371 1087.25 306.712L1101.4 350.296L1101.46 350.552C1101.46 350.851 1101.27 351 1100.88 351H1095.64ZM1075.67 337.624C1075.62 337.709 1075.62 337.795 1075.67 337.88C1075.75 337.923 1075.84 337.944 1075.92 337.944H1090.64C1090.73 337.944 1090.79 337.923 1090.84 337.88C1090.92 337.795 1090.94 337.709 1090.9 337.624L1083.48 313.88C1083.43 313.795 1083.37 313.752 1083.28 313.752C1083.2 313.752 1083.13 313.795 1083.09 313.88L1075.67 337.624Z" fill="#35393D"/>
<rect x="793.5" y="1.5" width="314.977" height="271" rx="11.5" fill="white" stroke="#9D9D9D" stroke-width="3"/>
<path d="M801.093 19.2813C801.093 13.7584 805.57 9.28125 811.093 9.28125H1090.88C1096.41 9.28125 1100.88 13.7584 1100.88 19.2812V93.0312H801.093V19.2813Z" fill="#FF6600"/>
<path d="M801.093 180.969H1100.88V254.719C1100.88 260.242 1096.41 264.719 1090.88 264.719H811.093C805.57 264.719 801.093 260.242 801.093 254.719V180.969Z" fill="#FF6600"/>
<path d="M807.88 153C807.613 153 807.48 152.867 807.48 152.6V125.4C807.48 125.133 807.613 125 807.88 125H810.92C811.187 125 811.32 125.133 811.32 125.4V149.52C811.32 149.627 811.373 149.68 811.48 149.68H820.44C820.707 149.68 820.84 149.813 820.84 150.08V152.6C820.84 152.867 820.707 153 820.44 153H807.88ZM831.211 153.32C829.024 153.32 827.264 152.653 825.931 151.32C824.598 149.987 823.931 148.213 823.931 146V132.04C823.931 129.827 824.598 128.053 825.931 126.72C827.264 125.36 829.024 124.68 831.211 124.68C833.424 124.68 835.198 125.36 836.531 126.72C837.891 128.053 838.571 129.827 838.571 132.04V146C838.571 148.213 837.891 149.987 836.531 151.32C835.198 152.653 833.424 153.32 831.211 153.32ZM831.211 150C832.278 150 833.131 149.653 833.771 148.96C834.411 148.24 834.731 147.307 834.731 146.16V131.84C834.731 130.693 834.411 129.773 833.771 129.08C833.131 128.36 832.278 128 831.211 128C830.171 128 829.331 128.36 828.691 129.08C828.078 129.773 827.771 130.693 827.771 131.84V146.16C827.771 147.307 828.078 148.24 828.691 148.96C829.331 149.653 830.171 150 831.211 150ZM850.487 153.32C848.301 153.32 846.541 152.653 845.207 151.32C843.874 149.987 843.207 148.213 843.207 146V132.04C843.207 129.827 843.874 128.053 845.207 126.72C846.541 125.36 848.301 124.68 850.487 124.68C852.701 124.68 854.474 125.36 855.807 126.72C857.167 128.053 857.847 129.827 857.847 132.04V146C857.847 148.213 857.167 149.987 855.807 151.32C854.474 152.653 852.701 153.32 850.487 153.32ZM850.487 150C851.554 150 852.407 149.653 853.047 148.96C853.687 148.24 854.007 147.307 854.007 146.16V131.84C854.007 130.693 853.687 129.773 853.047 129.08C852.407 128.36 851.554 128 850.487 128C849.447 128 848.607 128.36 847.967 129.08C847.354 129.773 847.047 130.693 847.047 131.84V146.16C847.047 147.307 847.354 148.24 847.967 148.96C848.607 149.653 849.447 150 850.487 150ZM863.444 153C863.177 153 863.044 152.867 863.044 152.6V125.4C863.044 125.133 863.177 125 863.444 125H866.484C866.751 125 866.884 125.133 866.884 125.4V137.4C866.884 137.48 866.911 137.533 866.964 137.56C867.017 137.56 867.057 137.52 867.084 137.44L873.884 125.28C874.017 125.093 874.177 125 874.364 125H877.644C877.804 125 877.911 125.053 877.964 125.16C878.017 125.24 878.004 125.347 877.924 125.48L871.764 136.6C871.737 136.68 871.737 136.76 871.764 136.84L878.444 152.52L878.484 152.68C878.484 152.893 878.364 153 878.124 153H874.804C874.591 153 874.444 152.893 874.364 152.68L869.164 140.2C869.137 140.067 869.071 140.053 868.964 140.16L866.924 143.4C866.897 143.427 866.884 143.493 866.884 143.6V152.6C866.884 152.867 866.751 153 866.484 153H863.444ZM904.645 127.92C904.645 128.187 904.511 128.32 904.245 128.32H895.285C895.178 128.32 895.125 128.373 895.125 128.48V137.16C895.125 137.267 895.178 137.32 895.285 137.32H900.765C901.031 137.32 901.165 137.453 901.165 137.72V140.24C901.165 140.507 901.031 140.64 900.765 140.64H895.285C895.178 140.64 895.125 140.693 895.125 140.8V152.6C895.125 152.867 894.991 153 894.725 153H891.685C891.418 153 891.285 152.867 891.285 152.6V125.4C891.285 125.133 891.418 125 891.685 125H904.245C904.511 125 904.645 125.133 904.645 125.4V127.92ZM915.211 153.32C913.024 153.32 911.264 152.653 909.931 151.32C908.598 149.987 907.931 148.213 907.931 146V132.04C907.931 129.827 908.598 128.053 909.931 126.72C911.264 125.36 913.024 124.68 915.211 124.68C917.424 124.68 919.198 125.36 920.531 126.72C921.891 128.053 922.571 129.827 922.571 132.04V146C922.571 148.213 921.891 149.987 920.531 151.32C919.198 152.653 917.424 153.32 915.211 153.32ZM915.211 150C916.278 150 917.131 149.653 917.771 148.96C918.411 148.24 918.731 147.307 918.731 146.16V131.84C918.731 130.693 918.411 129.773 917.771 129.08C917.131 128.36 916.278 128 915.211 128C914.171 128 913.331 128.36 912.691 129.08C912.078 129.773 911.771 130.693 911.771 131.84V146.16C911.771 147.307 912.078 148.24 912.691 148.96C913.331 149.653 914.171 150 915.211 150ZM938.887 153C938.647 153 938.487 152.893 938.407 152.68L934.727 140.76C934.701 140.68 934.647 140.64 934.567 140.64H931.767C931.661 140.64 931.607 140.693 931.607 140.8V152.6C931.607 152.867 931.474 153 931.207 153H928.167C927.901 153 927.767 152.867 927.767 152.6V125.4C927.767 125.133 927.901 125 928.167 125H935.327C936.687 125 937.887 125.333 938.927 126C939.967 126.667 940.767 127.613 941.327 128.84C941.914 130.04 942.207 131.413 942.207 132.96C942.207 134.64 941.861 136.107 941.167 137.36C940.474 138.587 939.527 139.48 938.327 140.04C938.247 140.12 938.221 140.2 938.247 140.28L942.327 152.56L942.367 152.72C942.367 152.907 942.247 153 942.007 153H938.887ZM931.767 128.32C931.661 128.32 931.607 128.373 931.607 128.48V137.44C931.607 137.547 931.661 137.6 931.767 137.6H934.727C935.821 137.6 936.701 137.187 937.367 136.36C938.034 135.507 938.367 134.387 938.367 133C938.367 131.56 938.034 130.427 937.367 129.6C936.701 128.747 935.821 128.32 934.727 128.32H931.767ZM962.22 153.32C960.034 153.32 958.274 152.653 956.94 151.32C955.607 149.987 954.94 148.213 954.94 146V132.04C954.94 129.827 955.607 128.053 956.94 126.72C958.274 125.36 960.034 124.68 962.22 124.68C964.434 124.68 966.207 125.36 967.54 126.72C968.9 128.053 969.58 129.827 969.58 132.04V146C969.58 148.213 968.9 149.987 967.54 151.32C966.207 152.653 964.434 153.32 962.22 153.32ZM962.22 150C963.287 150 964.14 149.653 964.78 148.96C965.42 148.24 965.74 147.307 965.74 146.16V131.84C965.74 130.693 965.42 129.773 964.78 129.08C964.14 128.36 963.287 128 962.22 128C961.18 128 960.34 128.36 959.7 129.08C959.087 129.773 958.78 130.693 958.78 131.84V146.16C958.78 147.307 959.087 148.24 959.7 148.96C960.34 149.653 961.18 150 962.22 150ZM981.817 153.32C979.63 153.32 977.87 152.6 976.537 151.16C975.23 149.693 974.577 147.773 974.577 145.4V125.4C974.577 125.133 974.71 125 974.977 125H978.017C978.284 125 978.417 125.133 978.417 125.4V145.8C978.417 147.053 978.724 148.067 979.337 148.84C979.977 149.613 980.804 150 981.817 150C982.857 150 983.684 149.613 984.297 148.84C984.937 148.067 985.257 147.053 985.257 145.8V125.4C985.257 125.133 985.39 125 985.657 125H988.697C988.964 125 989.097 125.133 989.097 125.4V145.4C989.097 147.773 988.43 149.693 987.097 151.16C985.764 152.6 984.004 153.32 981.817 153.32ZM1005.76 153C1005.52 153 1005.36 152.893 1005.28 152.68L1001.6 140.76C1001.57 140.68 1001.52 140.64 1001.44 140.64H998.639C998.533 140.64 998.479 140.693 998.479 140.8V152.6C998.479 152.867 998.346 153 998.079 153H995.039C994.773 153 994.639 152.867 994.639 152.6V125.4C994.639 125.133 994.773 125 995.039 125H1002.2C1003.56 125 1004.76 125.333 1005.8 126C1006.84 126.667 1007.64 127.613 1008.2 128.84C1008.79 130.04 1009.08 131.413 1009.08 132.96C1009.08 134.64 1008.73 136.107 1008.04 137.36C1007.35 138.587 1006.4 139.48 1005.2 140.04C1005.12 140.12 1005.09 140.2 1005.12 140.28L1009.2 152.56L1009.24 152.72C1009.24 152.907 1009.12 153 1008.88 153H1005.76ZM998.639 128.32C998.533 128.32 998.479 128.373 998.479 128.48V137.44C998.479 137.547 998.533 137.6 998.639 137.6H1001.6C1002.69 137.6 1003.57 137.187 1004.24 136.36C1004.91 135.507 1005.24 134.387 1005.24 133C1005.24 131.56 1004.91 130.427 1004.24 129.6C1003.57 128.747 1002.69 128.32 1001.6 128.32H998.639ZM1028.45 153.32C1026.35 153.32 1024.64 152.667 1023.33 151.36C1022.05 150.027 1021.41 148.293 1021.41 146.16V145.12C1021.41 144.853 1021.55 144.72 1021.81 144.72H1024.77C1025.04 144.72 1025.17 144.853 1025.17 145.12V145.96C1025.17 147.187 1025.48 148.173 1026.09 148.92C1026.71 149.64 1027.49 150 1028.45 150C1029.41 150 1030.2 149.653 1030.81 148.96C1031.45 148.24 1031.77 147.307 1031.77 146.16C1031.77 145.387 1031.6 144.707 1031.25 144.12C1030.93 143.533 1030.49 143.013 1029.93 142.56C1029.4 142.08 1028.52 141.387 1027.29 140.48C1025.93 139.467 1024.87 138.6 1024.09 137.88C1023.32 137.16 1022.67 136.293 1022.13 135.28C1021.6 134.267 1021.33 133.08 1021.33 131.72C1021.33 129.56 1021.97 127.853 1023.25 126.6C1024.53 125.32 1026.2 124.68 1028.25 124.68C1030.39 124.68 1032.09 125.36 1033.37 126.72C1034.68 128.08 1035.33 129.867 1035.33 132.08V133.08C1035.33 133.347 1035.2 133.48 1034.93 133.48H1031.97C1031.71 133.48 1031.57 133.347 1031.57 133.08V132C1031.57 130.8 1031.27 129.84 1030.65 129.12C1030.04 128.373 1029.24 128 1028.25 128C1027.32 128 1026.56 128.333 1025.97 129C1025.39 129.64 1025.09 130.547 1025.09 131.72C1025.09 132.787 1025.39 133.693 1025.97 134.44C1026.56 135.16 1027.69 136.133 1029.37 137.36C1030.97 138.56 1032.17 139.533 1032.97 140.28C1033.8 141.027 1034.43 141.853 1034.85 142.76C1035.31 143.64 1035.53 144.693 1035.53 145.92C1035.53 148.16 1034.88 149.96 1033.57 151.32C1032.27 152.653 1030.56 153.32 1028.45 153.32ZM1040.6 153C1040.34 153 1040.2 152.867 1040.2 152.6V125.4C1040.2 125.133 1040.34 125 1040.6 125H1043.64C1043.91 125 1044.04 125.133 1044.04 125.4V152.6C1044.04 152.867 1043.91 153 1043.64 153H1040.6ZM1056.43 153.32C1054.27 153.32 1052.53 152.68 1051.19 151.4C1049.89 150.12 1049.23 148.427 1049.23 146.32V131.68C1049.23 129.573 1049.89 127.88 1051.19 126.6C1052.53 125.32 1054.27 124.68 1056.43 124.68C1058.59 124.68 1060.34 125.32 1061.67 126.6C1063.01 127.88 1063.67 129.587 1063.67 131.72V133.4C1063.67 133.667 1063.54 133.8 1063.27 133.8H1060.23C1059.97 133.8 1059.83 133.667 1059.83 133.4V131.64C1059.83 130.547 1059.51 129.667 1058.87 129C1058.26 128.333 1057.45 128 1056.43 128C1055.42 128 1054.59 128.333 1053.95 129C1053.34 129.667 1053.03 130.547 1053.03 131.64V146.36C1053.03 147.453 1053.34 148.333 1053.95 149C1054.59 149.667 1055.42 150 1056.43 150C1057.45 150 1058.26 149.667 1058.87 149C1059.51 148.333 1059.83 147.453 1059.83 146.36V141.96C1059.83 141.853 1059.78 141.8 1059.67 141.8H1056.63C1056.37 141.8 1056.23 141.667 1056.23 141.4V138.92C1056.23 138.653 1056.37 138.52 1056.63 138.52H1063.27C1063.54 138.52 1063.67 138.653 1063.67 138.92V146.32C1063.67 148.427 1063.01 150.12 1061.67 151.4C1060.34 152.68 1058.59 153.32 1056.43 153.32ZM1080.15 125.4C1080.15 125.133 1080.29 125 1080.55 125H1083.55C1083.82 125 1083.95 125.133 1083.95 125.4V152.6C1083.95 152.867 1083.82 153 1083.55 153H1080.11C1079.9 153 1079.75 152.893 1079.67 152.68L1072.87 134.4C1072.85 134.347 1072.81 134.333 1072.75 134.36C1072.7 134.36 1072.67 134.387 1072.67 134.44L1072.71 152.6C1072.71 152.867 1072.58 153 1072.31 153H1069.27C1069.01 153 1068.87 152.867 1068.87 152.6V125.4C1068.87 125.133 1069.01 125 1069.27 125H1072.67C1072.89 125 1073.03 125.107 1073.11 125.32L1079.95 143.6C1079.98 143.68 1080.02 143.72 1080.07 143.72C1080.13 143.693 1080.15 143.64 1080.15 143.56V125.4ZM1091.31 143.72C1091.05 143.72 1090.91 143.587 1090.91 143.32L1090.55 125.4C1090.55 125.133 1090.69 125 1090.95 125H1093.99C1094.26 125 1094.39 125.133 1094.39 125.4L1093.99 143.32C1093.99 143.587 1093.86 143.72 1093.59 143.72H1091.31ZM1092.47 152.88C1091.73 152.88 1091.11 152.64 1090.63 152.16C1090.15 151.68 1089.91 151.067 1089.91 150.32C1089.91 149.547 1090.15 148.933 1090.63 148.48C1091.11 148 1091.73 147.76 1092.47 147.76C1093.22 147.76 1093.83 148 1094.31 148.48C1094.79 148.96 1095.03 149.573 1095.03 150.32C1095.03 151.067 1094.79 151.68 1094.31 152.16C1093.83 152.64 1093.22 152.88 1092.47 152.88Z" fill="black"/>
</svg>
