
<svg width="817" height="473" viewBox="0 0 817 473" fill="none" xmlns="http://www.w3.org/2000/svg">
<rect x="1.5" y="1.5" width="814" height="470" rx="10" fill="white" stroke="#9D9D9D" stroke-width="3"/>
<path d="M803.5 97.5V18.5C803.5 15.7386 801.261 13.5 798.5 13.5H18.5C15.7386 13.5 13.5 15.7386 13.5 18.5V97.5H803.5Z" fill="#FF6600" fill-opacity="0.75" stroke="#FF6600" stroke-width="10"/>
<path d="M803.5 375.5V454.5C803.5 457.261 801.261 459.5 798.5 459.5H18.5C15.7386 459.5 13.5 457.261 13.5 454.5V375.5H803.5Z" fill="#FF6600" fill-opacity="0.75" stroke="#FF6600" stroke-width="10"/>
<path d="M73.994 199.615C73.994 208.576 71.1817 215.488 65.557 220.35C59.9323 225.117 52.7823 227.5 44.107 227.5H15.221C14.7443 227.5 14.3153 227.357 13.934 227.071C13.648 226.69 13.505 226.261 13.505 225.784V129.116C13.505 128.639 13.648 128.258 13.934 127.972C14.3153 127.591 14.7443 127.4 15.221 127.4H40.389C50.3037 127.4 58.0733 129.736 63.698 134.407C69.418 138.983 72.278 145.895 72.278 155.142C72.278 164.294 69.275 171.015 63.269 175.305C62.7923 175.591 62.7447 175.877 63.126 176.163C70.3713 181.502 73.994 189.319 73.994 199.615ZM37.958 147.706C37.4813 147.706 37.243 147.944 37.243 148.421V166.725C37.243 167.202 37.4813 167.44 37.958 167.44H40.675C43.3443 167.44 45.394 166.63 46.824 165.009C48.254 163.293 48.969 160.862 48.969 157.716C48.969 154.475 48.254 151.996 46.824 150.28C45.394 148.564 43.3443 147.706 40.675 147.706H37.958ZM42.248 207.051C44.7267 207.051 46.681 206.098 48.111 204.191C49.541 202.284 50.256 199.567 50.256 196.04C50.256 192.513 49.541 189.7 48.111 187.603C46.681 185.506 44.7743 184.457 42.391 184.457H37.958C37.4813 184.457 37.243 184.695 37.243 185.172V206.336C37.243 206.813 37.4813 207.051 37.958 207.051H42.248ZM83.3694 227.5C82.8928 227.5 82.4638 227.357 82.0824 227.071C81.7964 226.69 81.6534 226.261 81.6534 225.784V129.116C81.6534 128.639 81.7964 128.258 82.0824 127.972C82.4638 127.591 82.8928 127.4 83.3694 127.4H103.675C104.152 127.4 104.533 127.591 104.819 127.972C105.201 128.258 105.391 128.639 105.391 129.116V206.479C105.391 206.956 105.63 207.194 106.106 207.194H135.278C135.755 207.194 136.136 207.385 136.422 207.766C136.804 208.052 136.994 208.433 136.994 208.91V225.784C136.994 226.261 136.804 226.69 136.422 227.071C136.136 227.357 135.755 227.5 135.278 227.5H83.3694ZM173.391 228.644C167.481 228.644 162.285 227.405 157.804 224.926C153.324 222.352 149.844 218.777 147.365 214.201C144.887 209.625 143.647 204.334 143.647 198.328V129.116C143.647 128.639 143.79 128.258 144.076 127.972C144.458 127.591 144.887 127.4 145.363 127.4H165.669C166.146 127.4 166.527 127.591 166.813 127.972C167.195 128.258 167.385 128.639 167.385 129.116V200.616C167.385 202.904 167.91 204.763 168.958 206.193C170.102 207.623 171.58 208.338 173.391 208.338C175.203 208.338 176.633 207.623 177.681 206.193C178.825 204.763 179.397 202.904 179.397 200.616V129.116C179.397 128.639 179.54 128.258 179.826 127.972C180.208 127.591 180.637 127.4 181.113 127.4H201.419C201.896 127.4 202.277 127.591 202.563 127.972C202.945 128.258 203.135 128.639 203.135 129.116V198.328C203.135 204.334 201.896 209.625 199.417 214.201C196.939 218.777 193.459 222.352 188.978 224.926C184.498 227.405 179.302 228.644 173.391 228.644ZM267.276 145.99C267.276 146.467 267.086 146.896 266.704 147.277C266.418 147.563 266.037 147.706 265.56 147.706H236.817C236.341 147.706 236.102 147.944 236.102 148.421V166.439C236.102 166.916 236.341 167.154 236.817 167.154H252.547C253.024 167.154 253.405 167.345 253.691 167.726C254.073 168.012 254.263 168.393 254.263 168.87V185.887C254.263 186.364 254.073 186.793 253.691 187.174C253.405 187.46 253.024 187.603 252.547 187.603H236.817C236.341 187.603 236.102 187.841 236.102 188.318V206.479C236.102 206.956 236.341 207.194 236.817 207.194H265.56C266.037 207.194 266.418 207.385 266.704 207.766C267.086 208.052 267.276 208.433 267.276 208.91V225.784C267.276 226.261 267.086 226.69 266.704 227.071C266.418 227.357 266.037 227.5 265.56 227.5H214.08C213.604 227.5 213.175 227.357 212.793 227.071C212.507 226.69 212.364 226.261 212.364 225.784V129.116C212.364 128.639 212.507 128.258 212.793 127.972C213.175 127.591 213.604 127.4 214.08 127.4H265.56C266.037 127.4 266.418 127.591 266.704 127.972C267.086 128.258 267.276 128.639 267.276 129.116V145.99ZM331.998 228.644C326.183 228.644 321.083 227.548 316.697 225.355C312.312 223.067 308.88 219.921 306.401 215.917C304.018 211.818 302.826 207.194 302.826 202.046V197.613C302.826 197.136 302.969 196.755 303.255 196.469C303.637 196.088 304.066 195.897 304.542 195.897H324.562C325.039 195.897 325.42 196.088 325.706 196.469C326.088 196.755 326.278 197.136 326.278 197.613V200.902C326.278 203.19 326.803 205.001 327.851 206.336C328.995 207.671 330.425 208.338 332.141 208.338C333.857 208.338 335.24 207.718 336.288 206.479C337.432 205.144 338.004 203.476 338.004 201.474C338.004 199.281 337.146 197.327 335.43 195.611C333.714 193.8 330.282 191.035 325.134 187.317C320.368 183.885 316.459 180.834 313.408 178.165C310.358 175.4 307.736 172.016 305.543 168.012C303.351 163.913 302.254 159.194 302.254 153.855C302.254 148.421 303.446 143.607 305.829 139.412C308.308 135.217 311.74 131.976 316.125 129.688C320.606 127.4 325.706 126.256 331.426 126.256C337.242 126.256 342.342 127.448 346.727 129.831C351.208 132.119 354.64 135.408 357.023 139.698C359.502 143.893 360.741 148.755 360.741 154.284V157.716C360.741 158.193 360.551 158.622 360.169 159.003C359.883 159.289 359.502 159.432 359.025 159.432H339.148C338.672 159.432 338.243 159.289 337.861 159.003C337.575 158.622 337.432 158.193 337.432 157.716V153.712C337.432 151.615 336.86 149.899 335.716 148.564C334.572 147.229 333.142 146.562 331.426 146.562C329.71 146.562 328.328 147.229 327.279 148.564C326.231 149.899 325.706 151.662 325.706 153.855C325.706 156.238 326.517 158.383 328.137 160.29C329.758 162.197 333.047 164.961 338.004 168.584C344.01 173.065 348.539 176.687 351.589 179.452C354.64 182.217 357.023 185.315 358.739 188.747C360.455 192.084 361.313 196.04 361.313 200.616C361.313 209.196 358.596 216.012 353.162 221.065C347.824 226.118 340.769 228.644 331.998 228.644ZM370.766 227.5C370.289 227.5 369.86 227.357 369.479 227.071C369.193 226.69 369.05 226.261 369.05 225.784V129.116C369.05 128.639 369.193 128.258 369.479 127.972C369.86 127.591 370.289 127.4 370.766 127.4H391.072C391.549 127.4 391.93 127.591 392.216 127.972C392.597 128.258 392.788 128.639 392.788 129.116V161.434C392.788 161.815 392.883 162.006 393.074 162.006C393.265 162.006 393.455 161.863 393.646 161.577L408.661 128.687C409.042 127.829 409.71 127.4 410.663 127.4H432.113C432.78 127.4 433.209 127.591 433.4 127.972C433.686 128.258 433.686 128.735 433.4 129.402L412.665 171.444C412.57 171.825 412.522 172.111 412.522 172.302L434.258 225.498C434.353 225.689 434.401 225.975 434.401 226.356C434.401 227.119 433.924 227.5 432.971 227.5H411.378C410.329 227.5 409.662 227.071 409.376 226.213L396.506 192.751C396.411 192.465 396.268 192.322 396.077 192.322C395.886 192.322 395.696 192.465 395.505 192.751L392.931 197.899C392.836 198.09 392.788 198.376 392.788 198.757V225.784C392.788 226.261 392.597 226.69 392.216 227.071C391.93 227.357 391.549 227.5 391.072 227.5H370.766ZM461.125 227.214C460.648 227.214 460.219 227.071 459.838 226.785C459.552 226.404 459.409 225.975 459.409 225.498V190.32L459.266 189.462L439.246 129.402C439.151 129.211 439.103 128.973 439.103 128.687C439.103 127.829 439.58 127.4 440.533 127.4H461.983C462.936 127.4 463.556 127.924 463.842 128.973L470.992 160.433C471.087 160.814 471.23 161.005 471.421 161.005C471.612 161.005 471.755 160.814 471.85 160.433L479 128.973C479.286 127.924 479.906 127.4 480.859 127.4H502.309C502.881 127.4 503.263 127.591 503.453 127.972C503.739 128.258 503.787 128.735 503.596 129.402L483.29 189.462L483.147 190.32V225.498C483.147 225.975 482.956 226.404 482.575 226.785C482.289 227.071 481.908 227.214 481.431 227.214H461.125ZM52.544 347.5C51.4953 347.5 50.828 347.023 50.542 346.07L40.818 308.175C40.7227 307.794 40.4843 307.603 40.103 307.603H37.958C37.4813 307.603 37.243 307.841 37.243 308.318V345.784C37.243 346.261 37.0523 346.69 36.671 347.071C36.385 347.357 36.0037 347.5 35.527 347.5H15.221C14.7443 347.5 14.3153 347.357 13.934 347.071C13.648 346.69 13.505 346.261 13.505 345.784V249.116C13.505 248.639 13.648 248.258 13.934 247.972C14.3153 247.591 14.7443 247.4 15.221 247.4H45.966C51.4953 247.4 56.405 248.735 60.695 251.404C64.985 253.978 68.274 257.648 70.562 262.415C72.9453 267.086 74.137 272.425 74.137 278.431C74.137 283.77 73.136 288.584 71.134 292.874C69.2273 297.069 66.5103 300.453 62.983 303.027C62.7923 303.122 62.6493 303.265 62.554 303.456C62.4587 303.551 62.4587 303.694 62.554 303.885L74.852 345.498L74.995 346.07C74.995 347.023 74.4707 347.5 73.422 347.5H52.544ZM37.958 267.706C37.4813 267.706 37.243 267.944 37.243 268.421V288.727C37.243 289.204 37.4813 289.442 37.958 289.442H41.962C44.536 289.442 46.5857 288.489 48.111 286.582C49.6363 284.675 50.399 282.054 50.399 278.717C50.399 275.19 49.6363 272.473 48.111 270.566C46.5857 268.659 44.536 267.706 41.962 267.706H37.958ZM137.264 265.99C137.264 266.467 137.073 266.896 136.692 267.277C136.406 267.563 136.024 267.706 135.548 267.706H106.805C106.328 267.706 106.09 267.944 106.09 268.421V286.439C106.09 286.916 106.328 287.154 106.805 287.154H122.535C123.011 287.154 123.393 287.345 123.679 287.726C124.06 288.012 124.251 288.393 124.251 288.87V305.887C124.251 306.364 124.06 306.793 123.679 307.174C123.393 307.46 123.011 307.603 122.535 307.603H106.805C106.328 307.603 106.09 307.841 106.09 308.318V326.479C106.09 326.956 106.328 327.194 106.805 327.194H135.548C136.024 327.194 136.406 327.385 136.692 327.766C137.073 328.052 137.264 328.433 137.264 328.91V345.784C137.264 346.261 137.073 346.69 136.692 347.071C136.406 347.357 136.024 347.5 135.548 347.5H84.0677C83.591 347.5 83.162 347.357 82.7807 347.071C82.4947 346.69 82.3517 346.261 82.3517 345.784V249.116C82.3517 248.639 82.4947 248.258 82.7807 247.972C83.162 247.591 83.591 247.4 84.0677 247.4H135.548C136.024 247.4 136.406 247.591 136.692 247.972C137.073 248.258 137.264 248.639 137.264 249.116V265.99ZM190.617 347.5C189.473 347.5 188.854 346.976 188.758 345.927L186.899 333.486C186.899 333.009 186.613 332.771 186.041 332.771H170.597C170.025 332.771 169.739 333.009 169.739 333.486L168.023 345.927C167.928 346.976 167.308 347.5 166.164 347.5H145.858C144.619 347.5 144.142 346.88 144.428 345.641L165.163 248.973C165.354 247.924 165.974 247.4 167.022 247.4H190.331C191.38 247.4 192 247.924 192.19 248.973L212.782 345.641L212.925 346.213C212.925 347.071 212.401 347.5 211.352 347.5H190.617ZM172.885 313.752C172.885 314.229 173.076 314.467 173.457 314.467H183.038C183.42 314.467 183.61 314.229 183.61 313.752L178.462 281.148C178.367 280.767 178.224 280.576 178.033 280.576C177.843 280.576 177.7 280.767 177.604 281.148L172.885 313.752ZM221.621 347.5C221.145 347.5 220.716 347.357 220.334 347.071C220.048 346.69 219.905 346.261 219.905 345.784V249.116C219.905 248.639 220.048 248.258 220.334 247.972C220.716 247.591 221.145 247.4 221.621 247.4H241.927C242.404 247.4 242.785 247.591 243.071 247.972C243.453 248.258 243.643 248.639 243.643 249.116V326.479C243.643 326.956 243.882 327.194 244.358 327.194H273.53C274.007 327.194 274.388 327.385 274.674 327.766C275.056 328.052 275.246 328.433 275.246 328.91V345.784C275.246 346.261 275.056 346.69 274.674 347.071C274.388 347.357 274.007 347.5 273.53 347.5H221.621ZM365.868 265.99C365.868 266.467 365.678 266.896 365.296 267.277C365.01 267.563 364.629 267.706 364.152 267.706H335.409C334.933 267.706 334.694 267.944 334.694 268.421V286.439C334.694 286.916 334.933 287.154 335.409 287.154H351.139C351.616 287.154 351.997 287.345 352.283 287.726C352.665 288.012 352.855 288.393 352.855 288.87V305.887C352.855 306.364 352.665 306.793 352.283 307.174C351.997 307.46 351.616 307.603 351.139 307.603H335.409C334.933 307.603 334.694 307.841 334.694 308.318V326.479C334.694 326.956 334.933 327.194 335.409 327.194H364.152C364.629 327.194 365.01 327.385 365.296 327.766C365.678 328.052 365.868 328.433 365.868 328.91V345.784C365.868 346.261 365.678 346.69 365.296 347.071C365.01 347.357 364.629 347.5 364.152 347.5H312.672C312.196 347.5 311.767 347.357 311.385 347.071C311.099 346.69 310.956 346.261 310.956 345.784V249.116C310.956 248.639 311.099 248.258 311.385 247.972C311.767 247.591 312.196 247.4 312.672 247.4H364.152C364.629 247.4 365.01 247.591 365.296 247.972C365.678 248.258 365.868 248.639 365.868 249.116V265.99ZM401.962 348.644C396.147 348.644 391.047 347.548 386.661 345.355C382.276 343.067 378.844 339.921 376.365 335.917C373.982 331.818 372.79 327.194 372.79 322.046V317.613C372.79 317.136 372.933 316.755 373.219 316.469C373.601 316.088 374.03 315.897 374.506 315.897H394.526C395.003 315.897 395.384 316.088 395.67 316.469C396.052 316.755 396.242 317.136 396.242 317.613V320.902C396.242 323.19 396.767 325.001 397.815 326.336C398.959 327.671 400.389 328.338 402.105 328.338C403.821 328.338 405.204 327.718 406.252 326.479C407.396 325.144 407.968 323.476 407.968 321.474C407.968 319.281 407.11 317.327 405.394 315.611C403.678 313.8 400.246 311.035 395.098 307.317C390.332 303.885 386.423 300.834 383.372 298.165C380.322 295.4 377.7 292.016 375.507 288.012C373.315 283.913 372.218 279.194 372.218 273.855C372.218 268.421 373.41 263.607 375.793 259.412C378.272 255.217 381.704 251.976 386.089 249.688C390.57 247.4 395.67 246.256 401.39 246.256C407.206 246.256 412.306 247.448 416.691 249.831C421.172 252.119 424.604 255.408 426.987 259.698C429.466 263.893 430.705 268.755 430.705 274.284V277.716C430.705 278.193 430.515 278.622 430.133 279.003C429.847 279.289 429.466 279.432 428.989 279.432H409.112C408.636 279.432 408.207 279.289 407.825 279.003C407.539 278.622 407.396 278.193 407.396 277.716V273.712C407.396 271.615 406.824 269.899 405.68 268.564C404.536 267.229 403.106 266.562 401.39 266.562C399.674 266.562 398.292 267.229 397.243 268.564C396.195 269.899 395.67 271.662 395.67 273.855C395.67 276.238 396.481 278.383 398.101 280.29C399.722 282.197 403.011 284.961 407.968 288.584C413.974 293.065 418.503 296.687 421.553 299.452C424.604 302.217 426.987 305.315 428.703 308.747C430.419 312.084 431.277 316.04 431.277 320.616C431.277 329.196 428.56 336.012 423.126 341.065C417.788 346.118 410.733 348.644 401.962 348.644ZM498.226 247.4C498.703 247.4 499.084 247.591 499.37 247.972C499.751 248.258 499.942 248.639 499.942 249.116V265.99C499.942 266.467 499.751 266.896 499.37 267.277C499.084 267.563 498.703 267.706 498.226 267.706H480.494C480.017 267.706 479.779 267.944 479.779 268.421V345.784C479.779 346.261 479.588 346.69 479.207 347.071C478.921 347.357 478.54 347.5 478.063 347.5H457.757C457.28 347.5 456.851 347.357 456.47 347.071C456.184 346.69 456.041 346.261 456.041 345.784V268.421C456.041 267.944 455.803 267.706 455.326 267.706H438.309C437.832 267.706 437.403 267.563 437.022 267.277C436.736 266.896 436.593 266.467 436.593 265.99V249.116C436.593 248.639 436.736 248.258 437.022 247.972C437.403 247.591 437.832 247.4 438.309 247.4H498.226ZM542.252 347.5C541.108 347.5 540.488 346.976 540.393 345.927L538.534 333.486C538.534 333.009 538.248 332.771 537.676 332.771H522.232C521.66 332.771 521.374 333.009 521.374 333.486L519.658 345.927C519.563 346.976 518.943 347.5 517.799 347.5H497.493C496.254 347.5 495.777 346.88 496.063 345.641L516.798 248.973C516.989 247.924 517.608 247.4 518.657 247.4H541.966C543.015 247.4 543.634 247.924 543.825 248.973L564.417 345.641L564.56 346.213C564.56 347.071 564.036 347.5 562.987 347.5H542.252ZM524.52 313.752C524.52 314.229 524.711 314.467 525.092 314.467H534.673C535.054 314.467 535.245 314.229 535.245 313.752L530.097 281.148C530.002 280.767 529.859 280.576 529.668 280.576C529.477 280.576 529.334 280.767 529.239 281.148L524.52 313.752ZM622.792 247.4C623.269 247.4 623.65 247.591 623.936 247.972C624.318 248.258 624.508 248.639 624.508 249.116V265.99C624.508 266.467 624.318 266.896 623.936 267.277C623.65 267.563 623.269 267.706 622.792 267.706H605.06C604.584 267.706 604.345 267.944 604.345 268.421V345.784C604.345 346.261 604.155 346.69 603.773 347.071C603.487 347.357 603.106 347.5 602.629 347.5H582.323C581.847 347.5 581.418 347.357 581.036 347.071C580.75 346.69 580.607 346.261 580.607 345.784V268.421C580.607 267.944 580.369 267.706 579.892 267.706H562.875C562.399 267.706 561.97 267.563 561.588 267.277C561.302 266.896 561.159 266.467 561.159 265.99V249.116C561.159 248.639 561.302 248.258 561.588 247.972C561.97 247.591 562.399 247.4 562.875 247.4H622.792ZM687.479 265.99C687.479 266.467 687.288 266.896 686.907 267.277C686.621 267.563 686.239 267.706 685.763 267.706H657.02C656.543 267.706 656.305 267.944 656.305 268.421V286.439C656.305 286.916 656.543 287.154 657.02 287.154H672.75C673.226 287.154 673.608 287.345 673.894 287.726C674.275 288.012 674.466 288.393 674.466 288.87V305.887C674.466 306.364 674.275 306.793 673.894 307.174C673.608 307.46 673.226 307.603 672.75 307.603H657.02C656.543 307.603 656.305 307.841 656.305 308.318V326.479C656.305 326.956 656.543 327.194 657.02 327.194H685.763C686.239 327.194 686.621 327.385 686.907 327.766C687.288 328.052 687.479 328.433 687.479 328.91V345.784C687.479 346.261 687.288 346.69 686.907 347.071C686.621 347.357 686.239 347.5 685.763 347.5H634.283C633.806 347.5 633.377 347.357 632.996 347.071C632.71 346.69 632.567 346.261 632.567 345.784V249.116C632.567 248.639 632.71 248.258 632.996 247.972C633.377 247.591 633.806 247.4 634.283 247.4H685.763C686.239 247.4 686.621 247.591 686.907 247.972C687.288 248.258 687.479 248.639 687.479 249.116V265.99Z" fill="#3769B1"/>
<path d="M27.734 440.5C27.5407 440.5 27.3667 440.442 27.212 440.326C27.096 440.171 27.038 439.997 27.038 439.804V400.596C27.038 400.403 27.096 400.248 27.212 400.132C27.3667 399.977 27.5407 399.9 27.734 399.9H34.52C34.7133 399.9 34.868 399.977 34.984 400.132C35.1387 400.248 35.216 400.403 35.216 400.596V439.804C35.216 439.997 35.1387 440.171 34.984 440.326C34.868 440.442 34.7133 440.5 34.52 440.5H27.734ZM65.5903 400.596C65.5903 400.403 65.6483 400.248 65.7643 400.132C65.919 399.977 66.093 399.9 66.2863 399.9H73.0723C73.2657 399.9 73.4203 399.977 73.5363 400.132C73.691 400.248 73.7683 400.403 73.7683 400.596V439.804C73.7683 439.997 73.691 440.171 73.5363 440.326C73.4203 440.442 73.2657 440.5 73.0723 440.5H66.5183C66.1317 440.5 65.861 440.345 65.7063 440.036L50.6843 415.212C50.607 415.096 50.5297 415.057 50.4523 415.096C50.375 415.096 50.3363 415.173 50.3363 415.328L50.4523 439.804C50.4523 439.997 50.375 440.171 50.2203 440.326C50.1043 440.442 49.9497 440.5 49.7563 440.5H42.9703C42.777 440.5 42.603 440.442 42.4483 440.326C42.3323 440.171 42.2743 439.997 42.2743 439.804V400.596C42.2743 400.403 42.3323 400.248 42.4483 400.132C42.603 399.977 42.777 399.9 42.9703 399.9H49.5243C49.911 399.9 50.1817 400.055 50.3363 400.364L65.3003 425.072C65.3777 425.188 65.455 425.246 65.5323 425.246C65.6097 425.207 65.6483 425.111 65.6483 424.956L65.5903 400.596ZM101.448 440.5C101.023 440.5 100.752 440.307 100.636 439.92L90.3699 400.654L90.3119 400.422C90.3119 400.074 90.5246 399.9 90.9499 399.9H98.1419C98.5286 399.9 98.7799 400.093 98.8959 400.48L104.406 424.086C104.445 424.241 104.503 424.318 104.58 424.318C104.657 424.318 104.715 424.241 104.754 424.086L110.09 400.538C110.206 400.113 110.457 399.9 110.844 399.9H117.862C118.287 399.9 118.558 400.093 118.674 400.48L124.474 424.086C124.513 424.202 124.571 424.279 124.648 424.318C124.725 424.318 124.783 424.241 124.822 424.086L130.158 400.538C130.274 400.113 130.525 399.9 130.912 399.9H137.756C138.297 399.9 138.51 400.151 138.394 400.654L128.882 439.92C128.766 440.307 128.495 440.5 128.07 440.5H121.168C120.781 440.5 120.53 440.307 120.414 439.92L114.498 414.806C114.459 414.651 114.401 414.574 114.324 414.574C114.247 414.574 114.189 414.651 114.15 414.806L108.64 439.862C108.563 440.287 108.311 440.5 107.886 440.5H101.448ZM171.169 406.222C171.169 406.415 171.092 406.589 170.937 406.744C170.821 406.86 170.667 406.918 170.473 406.918H151.449C151.256 406.918 151.159 407.015 151.159 407.208V416.198C151.159 416.391 151.256 416.488 151.449 416.488H163.919C164.113 416.488 164.267 416.565 164.383 416.72C164.538 416.836 164.615 416.991 164.615 417.184V422.81C164.615 423.003 164.538 423.177 164.383 423.332C164.267 423.448 164.113 423.506 163.919 423.506H151.449C151.256 423.506 151.159 423.603 151.159 423.796V433.192C151.159 433.385 151.256 433.482 151.449 433.482H170.473C170.667 433.482 170.821 433.559 170.937 433.714C171.092 433.83 171.169 433.985 171.169 434.178V439.804C171.169 439.997 171.092 440.171 170.937 440.326C170.821 440.442 170.667 440.5 170.473 440.5H143.677C143.484 440.5 143.31 440.442 143.155 440.326C143.039 440.171 142.981 439.997 142.981 439.804V400.596C142.981 400.403 143.039 400.248 143.155 400.132C143.31 399.977 143.484 399.9 143.677 399.9H170.473C170.667 399.9 170.821 399.977 170.937 400.132C171.092 400.248 171.169 400.403 171.169 400.596V406.222ZM190.772 440.964C187.679 440.964 184.972 440.481 182.652 439.514C180.332 438.509 178.534 437.097 177.258 435.28C176.021 433.424 175.402 431.278 175.402 428.842V427.566C175.402 427.373 175.46 427.218 175.576 427.102C175.731 426.947 175.905 426.87 176.098 426.87H182.71C182.904 426.87 183.058 426.947 183.174 427.102C183.329 427.218 183.406 427.373 183.406 427.566V428.436C183.406 429.983 184.122 431.297 185.552 432.38C186.983 433.424 188.916 433.946 191.352 433.946C193.402 433.946 194.929 433.521 195.934 432.67C196.94 431.781 197.442 430.698 197.442 429.422C197.442 428.494 197.133 427.721 196.514 427.102C195.896 426.445 195.045 425.884 193.962 425.42C192.918 424.917 191.236 424.241 188.916 423.39C186.326 422.501 184.122 421.592 182.304 420.664C180.526 419.736 179.018 418.479 177.78 416.894C176.582 415.27 175.982 413.279 175.982 410.92C175.982 408.6 176.582 406.57 177.78 404.83C178.979 403.09 180.642 401.756 182.768 400.828C184.895 399.9 187.35 399.436 190.134 399.436C193.073 399.436 195.683 399.958 197.964 401.002C200.284 402.046 202.082 403.515 203.358 405.41C204.673 407.266 205.33 409.431 205.33 411.906V412.776C205.33 412.969 205.253 413.143 205.098 413.298C204.982 413.414 204.828 413.472 204.634 413.472H197.964C197.771 413.472 197.597 413.414 197.442 413.298C197.326 413.143 197.268 412.969 197.268 412.776V412.312C197.268 410.688 196.592 409.315 195.238 408.194C193.924 407.034 192.106 406.454 189.786 406.454C187.969 406.454 186.538 406.841 185.494 407.614C184.489 408.387 183.986 409.451 183.986 410.804C183.986 411.771 184.276 412.583 184.856 413.24C185.475 413.897 186.364 414.497 187.524 415.038C188.723 415.541 190.56 416.237 193.034 417.126C195.78 418.131 197.926 419.021 199.472 419.794C201.058 420.567 202.469 421.727 203.706 423.274C204.982 424.782 205.62 426.754 205.62 429.19C205.62 432.825 204.286 435.705 201.618 437.832C198.95 439.92 195.335 440.964 190.772 440.964ZM238.907 399.9C239.101 399.9 239.255 399.977 239.371 400.132C239.526 400.248 239.603 400.403 239.603 400.596V406.28C239.603 406.473 239.526 406.647 239.371 406.802C239.255 406.918 239.101 406.976 238.907 406.976H228.525C228.332 406.976 228.235 407.073 228.235 407.266V439.804C228.235 439.997 228.158 440.171 228.003 440.326C227.887 440.442 227.733 440.5 227.539 440.5H220.753C220.56 440.5 220.386 440.442 220.231 440.326C220.115 440.171 220.057 439.997 220.057 439.804V407.266C220.057 407.073 219.961 406.976 219.767 406.976H209.675C209.482 406.976 209.308 406.918 209.153 406.802C209.037 406.647 208.979 406.473 208.979 406.28V400.596C208.979 400.403 209.037 400.248 209.153 400.132C209.308 399.977 209.482 399.9 209.675 399.9H238.907ZM273.009 406.222C273.009 406.415 272.932 406.589 272.777 406.744C272.661 406.86 272.507 406.918 272.313 406.918H253.289C253.096 406.918 252.999 407.015 252.999 407.208V416.198C252.999 416.391 253.096 416.488 253.289 416.488H265.759C265.953 416.488 266.107 416.565 266.223 416.72C266.378 416.836 266.455 416.991 266.455 417.184V422.81C266.455 423.003 266.378 423.177 266.223 423.332C266.107 423.448 265.953 423.506 265.759 423.506H253.289C253.096 423.506 252.999 423.603 252.999 423.796V433.192C252.999 433.385 253.096 433.482 253.289 433.482H272.313C272.507 433.482 272.661 433.559 272.777 433.714C272.932 433.83 273.009 433.985 273.009 434.178V439.804C273.009 439.997 272.932 440.171 272.777 440.326C272.661 440.442 272.507 440.5 272.313 440.5H245.517C245.324 440.5 245.15 440.442 244.995 440.326C244.879 440.171 244.821 439.997 244.821 439.804V400.596C244.821 400.403 244.879 400.248 244.995 400.132C245.15 399.977 245.324 399.9 245.517 399.9H272.313C272.507 399.9 272.661 399.977 272.777 400.132C272.932 400.248 273.009 400.403 273.009 400.596V406.222ZM300.964 440.5C300.578 440.5 300.307 440.326 300.152 439.978L292.902 423.912C292.825 423.757 292.709 423.68 292.554 423.68H287.16C286.967 423.68 286.87 423.777 286.87 423.97V439.804C286.87 439.997 286.793 440.171 286.638 440.326C286.522 440.442 286.368 440.5 286.174 440.5H279.388C279.195 440.5 279.021 440.442 278.866 440.326C278.75 440.171 278.692 439.997 278.692 439.804V400.596C278.692 400.403 278.75 400.248 278.866 400.132C279.021 399.977 279.195 399.9 279.388 399.9H295.976C298.451 399.9 300.616 400.403 302.472 401.408C304.367 402.413 305.817 403.844 306.822 405.7C307.866 407.556 308.388 409.702 308.388 412.138C308.388 414.767 307.731 417.029 306.416 418.924C305.102 420.78 303.265 422.095 300.906 422.868C300.713 422.945 300.655 423.081 300.732 423.274L308.62 439.688C308.698 439.843 308.736 439.959 308.736 440.036C308.736 440.345 308.524 440.5 308.098 440.5H300.964ZM287.16 406.918C286.967 406.918 286.87 407.015 286.87 407.208V417.126C286.87 417.319 286.967 417.416 287.16 417.416H294.758C296.382 417.416 297.697 416.933 298.702 415.966C299.746 414.999 300.268 413.743 300.268 412.196C300.268 410.649 299.746 409.393 298.702 408.426C297.697 407.421 296.382 406.918 294.758 406.918H287.16ZM337.635 400.596C337.635 400.403 337.693 400.248 337.809 400.132C337.964 399.977 338.138 399.9 338.331 399.9H345.117C345.311 399.9 345.465 399.977 345.581 400.132C345.736 400.248 345.813 400.403 345.813 400.596V439.804C345.813 439.997 345.736 440.171 345.581 440.326C345.465 440.442 345.311 440.5 345.117 440.5H338.563C338.177 440.5 337.906 440.345 337.751 440.036L322.729 415.212C322.652 415.096 322.575 415.057 322.497 415.096C322.42 415.096 322.381 415.173 322.381 415.328L322.497 439.804C322.497 439.997 322.42 440.171 322.265 440.326C322.149 440.442 321.995 440.5 321.801 440.5H315.015C314.822 440.5 314.648 440.442 314.493 440.326C314.377 440.171 314.319 439.997 314.319 439.804V400.596C314.319 400.403 314.377 400.248 314.493 400.132C314.648 399.977 314.822 399.9 315.015 399.9H321.569C321.956 399.9 322.227 400.055 322.381 400.364L337.345 425.072C337.423 425.188 337.5 425.246 337.577 425.246C337.655 425.207 337.693 425.111 337.693 424.956L337.635 400.596ZM352.37 446.184C351.906 446.184 351.693 445.933 351.732 445.43L353.646 431.974C353.684 431.549 353.936 431.336 354.4 431.336H360.316C360.818 431.336 361.012 431.587 360.896 432.09L357.3 445.604C357.184 445.991 356.913 446.184 356.488 446.184H352.37ZM396.614 399.842C399.166 399.842 401.409 400.364 403.342 401.408C405.276 402.452 406.764 403.941 407.808 405.874C408.891 407.769 409.432 409.953 409.432 412.428C409.432 414.864 408.872 417.01 407.75 418.866C406.668 420.722 405.121 422.172 403.11 423.216C401.138 424.221 398.857 424.724 396.266 424.724H388.03C387.837 424.724 387.74 424.821 387.74 425.014V439.804C387.74 439.997 387.663 440.171 387.508 440.326C387.392 440.442 387.238 440.5 387.044 440.5H380.258C380.065 440.5 379.891 440.442 379.736 440.326C379.62 440.171 379.562 439.997 379.562 439.804V400.538C379.562 400.345 379.62 400.19 379.736 400.074C379.891 399.919 380.065 399.842 380.258 399.842H396.614ZM395.396 418.17C397.175 418.17 398.606 417.667 399.688 416.662C400.771 415.618 401.312 414.265 401.312 412.602C401.312 410.901 400.771 409.528 399.688 408.484C398.606 407.44 397.175 406.918 395.396 406.918H388.03C387.837 406.918 387.74 407.015 387.74 407.208V417.88C387.74 418.073 387.837 418.17 388.03 418.17H395.396ZM437.041 440.5C436.655 440.5 436.403 440.307 436.287 439.92L434.547 434.236C434.47 434.081 434.373 434.004 434.257 434.004H419.989C419.873 434.004 419.777 434.081 419.699 434.236L418.017 439.92C417.901 440.307 417.65 440.5 417.263 440.5H409.897C409.665 440.5 409.491 440.442 409.375 440.326C409.259 440.171 409.24 439.959 409.317 439.688L421.845 400.48C421.961 400.093 422.213 399.9 422.599 399.9H431.705C432.092 399.9 432.343 400.093 432.459 400.48L444.987 439.688C445.026 439.765 445.045 439.862 445.045 439.978C445.045 440.326 444.833 440.5 444.407 440.5H437.041ZM421.787 427.334C421.749 427.566 421.826 427.682 422.019 427.682H432.227C432.459 427.682 432.537 427.566 432.459 427.334L427.239 410.108C427.201 409.953 427.143 409.895 427.065 409.934C426.988 409.934 426.93 409.992 426.891 410.108L421.787 427.334Z" fill="black"/>
<path d="M44.0991 79.138C41.0831 79.138 38.4151 78.5193 36.0951 77.282C33.8138 76.0447 32.0351 74.324 30.7591 72.12C29.4831 69.8773 28.8451 67.306 28.8451 64.406V51.994C28.8451 49.1327 29.4831 46.6 30.7591 44.396C32.0351 42.192 33.8138 40.4907 36.0951 39.292C38.4151 38.0547 41.0831 37.436 44.0991 37.436C47.1538 37.436 49.8218 38.0547 52.1031 39.292C54.4231 40.4907 56.2211 42.192 57.4971 44.396C58.7731 46.6 59.4111 49.1327 59.4111 51.994V64.406C59.4111 67.306 58.7731 69.8773 57.4971 72.12C56.2211 74.3627 54.4231 76.1027 52.1031 77.34C49.8218 78.5387 47.1538 79.138 44.0991 79.138ZM44.0991 72.12C46.2258 72.12 47.9465 71.4433 49.2611 70.09C50.5758 68.7367 51.2331 66.9387 51.2331 64.696V51.936C51.2331 49.6933 50.5758 47.8953 49.2611 46.542C47.9851 45.15 46.2645 44.454 44.0991 44.454C41.9725 44.454 40.2518 45.15 38.9371 46.542C37.6611 47.8953 37.0231 49.6933 37.0231 51.936V64.696C37.0231 66.9387 37.6611 68.7367 38.9371 70.09C40.2518 71.4433 41.9725 72.12 44.0991 72.12ZM93.8106 44.222C93.8106 44.4153 93.7332 44.5893 93.5786 44.744C93.4626 44.86 93.3079 44.918 93.1146 44.918H74.1486C73.9552 44.918 73.8586 45.0147 73.8586 45.208V54.198C73.8586 54.3913 73.9552 54.488 74.1486 54.488H86.6186C86.8119 54.488 86.9666 54.5653 87.0826 54.72C87.2372 54.836 87.3146 54.9907 87.3146 55.184V60.81C87.3146 61.0033 87.2372 61.1773 87.0826 61.332C86.9666 61.448 86.8119 61.506 86.6186 61.506H74.1486C73.9552 61.506 73.8586 61.6027 73.8586 61.796V77.804C73.8586 77.9973 73.7812 78.1713 73.6266 78.326C73.5106 78.442 73.3559 78.5 73.1626 78.5H66.3766C66.1832 78.5 66.0092 78.442 65.8546 78.326C65.7386 78.1713 65.6806 77.9973 65.6806 77.804V38.596C65.6806 38.4027 65.7386 38.248 65.8546 38.132C66.0092 37.9773 66.1832 37.9 66.3766 37.9H93.1146C93.3079 37.9 93.4626 37.9773 93.5786 38.132C93.7332 38.248 93.8106 38.4027 93.8106 38.596V44.222ZM126.266 44.222C126.266 44.4153 126.188 44.5893 126.034 44.744C125.918 44.86 125.763 44.918 125.57 44.918H106.604C106.41 44.918 106.314 45.0147 106.314 45.208V54.198C106.314 54.3913 106.41 54.488 106.604 54.488H119.074C119.267 54.488 119.422 54.5653 119.538 54.72C119.692 54.836 119.77 54.9907 119.77 55.184V60.81C119.77 61.0033 119.692 61.1773 119.538 61.332C119.422 61.448 119.267 61.506 119.074 61.506H106.604C106.41 61.506 106.314 61.6027 106.314 61.796V77.804C106.314 77.9973 106.236 78.1713 106.082 78.326C105.966 78.442 105.811 78.5 105.618 78.5H98.8317C98.6383 78.5 98.4643 78.442 98.3097 78.326C98.1937 78.1713 98.1357 77.9973 98.1357 77.804V38.596C98.1357 38.4027 98.1937 38.248 98.3097 38.132C98.4643 37.9773 98.6383 37.9 98.8317 37.9H125.57C125.763 37.9 125.918 37.9773 126.034 38.132C126.188 38.248 126.266 38.4027 126.266 38.596V44.222ZM158.779 44.222C158.779 44.4153 158.701 44.5893 158.547 44.744C158.431 44.86 158.276 44.918 158.083 44.918H139.059C138.865 44.918 138.769 45.0147 138.769 45.208V54.198C138.769 54.3913 138.865 54.488 139.059 54.488H151.529C151.722 54.488 151.877 54.5653 151.993 54.72C152.147 54.836 152.225 54.9907 152.225 55.184V60.81C152.225 61.0033 152.147 61.1773 151.993 61.332C151.877 61.448 151.722 61.506 151.529 61.506H139.059C138.865 61.506 138.769 61.6027 138.769 61.796V71.192C138.769 71.3853 138.865 71.482 139.059 71.482H158.083C158.276 71.482 158.431 71.5593 158.547 71.714C158.701 71.83 158.779 71.9847 158.779 72.178V77.804C158.779 77.9973 158.701 78.1713 158.547 78.326C158.431 78.442 158.276 78.5 158.083 78.5H131.287C131.093 78.5 130.919 78.442 130.765 78.326C130.649 78.1713 130.591 77.9973 130.591 77.804V38.596C130.591 38.4027 130.649 38.248 130.765 38.132C130.919 37.9773 131.093 37.9 131.287 37.9H158.083C158.276 37.9 158.431 37.9773 158.547 38.132C158.701 38.248 158.779 38.4027 158.779 38.596V44.222ZM186.734 78.5C186.347 78.5 186.076 78.326 185.922 77.978L178.672 61.912C178.594 61.7573 178.478 61.68 178.324 61.68H172.93C172.736 61.68 172.64 61.7767 172.64 61.97V77.804C172.64 77.9973 172.562 78.1713 172.408 78.326C172.292 78.442 172.137 78.5 171.944 78.5H165.158C164.964 78.5 164.79 78.442 164.636 78.326C164.52 78.1713 164.462 77.9973 164.462 77.804V38.596C164.462 38.4027 164.52 38.248 164.636 38.132C164.79 37.9773 164.964 37.9 165.158 37.9H181.746C184.22 37.9 186.386 38.4027 188.242 39.408C190.136 40.4133 191.586 41.844 192.592 43.7C193.636 45.556 194.158 47.702 194.158 50.138C194.158 52.7673 193.5 55.0293 192.186 56.924C190.871 58.78 189.034 60.0947 186.676 60.868C186.482 60.9453 186.424 61.0807 186.502 61.274L194.39 77.688C194.467 77.8427 194.506 77.9587 194.506 78.036C194.506 78.3453 194.293 78.5 193.868 78.5H186.734ZM172.93 44.918C172.736 44.918 172.64 45.0147 172.64 45.208V55.126C172.64 55.3193 172.736 55.416 172.93 55.416H180.528C182.152 55.416 183.466 54.9327 184.472 53.966C185.516 52.9993 186.038 51.7427 186.038 50.196C186.038 48.6493 185.516 47.3927 184.472 46.426C183.466 45.4207 182.152 44.918 180.528 44.918H172.93ZM200.785 78.5C200.591 78.5 200.417 78.442 200.263 78.326C200.147 78.1713 200.089 77.9973 200.089 77.804V38.596C200.089 38.4027 200.147 38.248 200.263 38.132C200.417 37.9773 200.591 37.9 200.785 37.9H207.571C207.764 37.9 207.919 37.9773 208.035 38.132C208.189 38.248 208.267 38.4027 208.267 38.596V77.804C208.267 77.9973 208.189 78.1713 208.035 78.326C207.919 78.442 207.764 78.5 207.571 78.5H200.785ZM238.641 38.596C238.641 38.4027 238.699 38.248 238.815 38.132C238.97 37.9773 239.144 37.9 239.337 37.9H246.123C246.316 37.9 246.471 37.9773 246.587 38.132C246.742 38.248 246.819 38.4027 246.819 38.596V77.804C246.819 77.9973 246.742 78.1713 246.587 78.326C246.471 78.442 246.316 78.5 246.123 78.5H239.569C239.182 78.5 238.912 78.3453 238.757 78.036L223.735 53.212C223.658 53.096 223.58 53.0573 223.503 53.096C223.426 53.096 223.387 53.1733 223.387 53.328L223.503 77.804C223.503 77.9973 223.426 78.1713 223.271 78.326C223.155 78.442 223 78.5 222.807 78.5H216.021C215.828 78.5 215.654 78.442 215.499 78.326C215.383 78.1713 215.325 77.9973 215.325 77.804V38.596C215.325 38.4027 215.383 38.248 215.499 38.132C215.654 37.9773 215.828 37.9 216.021 37.9H222.575C222.962 37.9 223.232 38.0547 223.387 38.364L238.351 63.072C238.428 63.188 238.506 63.246 238.583 63.246C238.66 63.2073 238.699 63.1107 238.699 62.956L238.641 38.596ZM268.165 78.964C265.188 78.964 262.559 78.3647 260.277 77.166C257.996 75.9673 256.217 74.3047 254.941 72.178C253.704 70.0127 253.085 67.5187 253.085 64.696V51.704C253.085 48.8813 253.704 46.3873 254.941 44.222C256.217 42.0567 257.996 40.394 260.277 39.234C262.559 38.0353 265.188 37.436 268.165 37.436C271.104 37.436 273.695 38.016 275.937 39.176C278.219 40.336 279.978 41.9213 281.215 43.932C282.491 45.904 283.129 48.108 283.129 50.544V50.95C283.129 51.1433 283.052 51.3173 282.897 51.472C282.781 51.588 282.627 51.646 282.433 51.646H275.647C275.454 51.646 275.28 51.588 275.125 51.472C275.009 51.3173 274.951 51.1433 274.951 50.95V50.776C274.951 48.9973 274.333 47.5087 273.095 46.31C271.858 45.0727 270.215 44.454 268.165 44.454C266.077 44.454 264.395 45.1113 263.119 46.426C261.882 47.702 261.263 49.384 261.263 51.472V64.928C261.263 67.016 261.94 68.7173 263.293 70.032C264.647 71.308 266.367 71.946 268.455 71.946C270.466 71.946 272.071 71.424 273.269 70.38C274.468 69.2973 275.067 67.8087 275.067 65.914V63.304C275.067 63.1107 274.971 63.014 274.777 63.014H268.281C268.088 63.014 267.914 62.956 267.759 62.84C267.643 62.6853 267.585 62.5113 267.585 62.318V56.982C267.585 56.7887 267.643 56.634 267.759 56.518C267.914 56.3633 268.088 56.286 268.281 56.286H282.433C282.627 56.286 282.781 56.3633 282.897 56.518C283.052 56.634 283.129 56.7887 283.129 56.982V64.638C283.129 67.5767 282.511 70.1287 281.273 72.294C280.036 74.4593 278.277 76.122 275.995 77.282C273.753 78.4033 271.143 78.964 268.165 78.964ZM315.464 79.138C312.448 79.138 309.78 78.5193 307.46 77.282C305.179 76.0447 303.4 74.324 302.124 72.12C300.848 69.8773 300.21 67.306 300.21 64.406V51.994C300.21 49.1327 300.848 46.6 302.124 44.396C303.4 42.192 305.179 40.4907 307.46 39.292C309.78 38.0547 312.448 37.436 315.464 37.436C318.519 37.436 321.187 38.0547 323.468 39.292C325.788 40.4907 327.586 42.192 328.862 44.396C330.138 46.6 330.776 49.1327 330.776 51.994V64.406C330.776 67.306 330.138 69.8773 328.862 72.12C327.586 74.3627 325.788 76.1027 323.468 77.34C321.187 78.5387 318.519 79.138 315.464 79.138ZM315.464 72.12C317.591 72.12 319.312 71.4433 320.626 70.09C321.941 68.7367 322.598 66.9387 322.598 64.696V51.936C322.598 49.6933 321.941 47.8953 320.626 46.542C319.35 45.15 317.63 44.454 315.464 44.454C313.338 44.454 311.617 45.15 310.302 46.542C309.026 47.8953 308.388 49.6933 308.388 51.936V64.696C308.388 66.9387 309.026 68.7367 310.302 70.09C311.617 71.4433 313.338 72.12 315.464 72.12ZM345.186 78.5C344.761 78.5 344.49 78.3067 344.374 77.92L334.108 38.654L334.05 38.422C334.05 38.074 334.263 37.9 334.688 37.9H341.88C342.267 37.9 342.518 38.0933 342.634 38.48L348.144 62.086C348.183 62.2407 348.241 62.318 348.318 62.318C348.396 62.318 348.454 62.2407 348.492 62.086L353.828 38.538C353.944 38.1127 354.196 37.9 354.582 37.9H361.6C362.026 37.9 362.296 38.0933 362.412 38.48L368.212 62.086C368.251 62.202 368.309 62.2793 368.386 62.318C368.464 62.318 368.522 62.2407 368.56 62.086L373.896 38.538C374.012 38.1127 374.264 37.9 374.65 37.9H381.494C382.036 37.9 382.248 38.1513 382.132 38.654L372.62 77.92C372.504 78.3067 372.234 78.5 371.808 78.5H364.906C364.52 78.5 364.268 78.3067 364.152 77.92L358.236 52.806C358.198 52.6513 358.14 52.574 358.062 52.574C357.985 52.574 357.927 52.6513 357.888 52.806L352.378 77.862C352.301 78.2873 352.05 78.5 351.624 78.5H345.186ZM410.036 38.596C410.036 38.4027 410.094 38.248 410.21 38.132C410.364 37.9773 410.538 37.9 410.732 37.9H417.518C417.711 37.9 417.866 37.9773 417.982 38.132C418.136 38.248 418.214 38.4027 418.214 38.596V77.804C418.214 77.9973 418.136 78.1713 417.982 78.326C417.866 78.442 417.711 78.5 417.518 78.5H410.964C410.577 78.5 410.306 78.3453 410.152 78.036L395.13 53.212C395.052 53.096 394.975 53.0573 394.898 53.096C394.82 53.096 394.782 53.1733 394.782 53.328L394.898 77.804C394.898 77.9973 394.82 78.1713 394.666 78.326C394.55 78.442 394.395 78.5 394.202 78.5H387.416C387.222 78.5 387.048 78.442 386.894 78.326C386.778 78.1713 386.72 77.9973 386.72 77.804V38.596C386.72 38.4027 386.778 38.248 386.894 38.132C387.048 37.9773 387.222 37.9 387.416 37.9H393.97C394.356 37.9 394.627 38.0547 394.782 38.364L409.746 63.072C409.823 63.188 409.9 63.246 409.978 63.246C410.055 63.2073 410.094 63.1107 410.094 62.956L410.036 38.596ZM453.14 44.222C453.14 44.4153 453.063 44.5893 452.908 44.744C452.792 44.86 452.637 44.918 452.444 44.918H433.42C433.227 44.918 433.13 45.0147 433.13 45.208V54.198C433.13 54.3913 433.227 54.488 433.42 54.488H445.89C446.083 54.488 446.238 54.5653 446.354 54.72C446.509 54.836 446.586 54.9907 446.586 55.184V60.81C446.586 61.0033 446.509 61.1773 446.354 61.332C446.238 61.448 446.083 61.506 445.89 61.506H433.42C433.227 61.506 433.13 61.6027 433.13 61.796V71.192C433.13 71.3853 433.227 71.482 433.42 71.482H452.444C452.637 71.482 452.792 71.5593 452.908 71.714C453.063 71.83 453.14 71.9847 453.14 72.178V77.804C453.14 77.9973 453.063 78.1713 452.908 78.326C452.792 78.442 452.637 78.5 452.444 78.5H425.648C425.455 78.5 425.281 78.442 425.126 78.326C425.01 78.1713 424.952 77.9973 424.952 77.804V38.596C424.952 38.4027 425.01 38.248 425.126 38.132C425.281 37.9773 425.455 37.9 425.648 37.9H452.444C452.637 37.9 452.792 37.9773 452.908 38.132C453.063 38.248 453.14 38.4027 453.14 38.596V44.222ZM481.095 78.5C480.708 78.5 480.438 78.326 480.283 77.978L473.033 61.912C472.956 61.7573 472.84 61.68 472.685 61.68H467.291C467.098 61.68 467.001 61.7767 467.001 61.97V77.804C467.001 77.9973 466.924 78.1713 466.769 78.326C466.653 78.442 466.498 78.5 466.305 78.5H459.519C459.326 78.5 459.152 78.442 458.997 78.326C458.881 78.1713 458.823 77.9973 458.823 77.804V38.596C458.823 38.4027 458.881 38.248 458.997 38.132C459.152 37.9773 459.326 37.9 459.519 37.9H476.107C478.582 37.9 480.747 38.4027 482.603 39.408C484.498 40.4133 485.948 41.844 486.953 43.7C487.997 45.556 488.519 47.702 488.519 50.138C488.519 52.7673 487.862 55.0293 486.547 56.924C485.232 58.78 483.396 60.0947 481.037 60.868C480.844 60.9453 480.786 61.0807 480.863 61.274L488.751 77.688C488.828 77.8427 488.867 77.9587 488.867 78.036C488.867 78.3453 488.654 78.5 488.229 78.5H481.095ZM467.291 44.918C467.098 44.918 467.001 45.0147 467.001 45.208V55.126C467.001 55.3193 467.098 55.416 467.291 55.416H474.889C476.513 55.416 477.828 54.9327 478.833 53.966C479.877 52.9993 480.399 51.7427 480.399 50.196C480.399 48.6493 479.877 47.3927 478.833 46.426C477.828 45.4207 476.513 44.918 474.889 44.918H467.291ZM534.191 44.222C534.191 44.4153 534.114 44.5893 533.959 44.744C533.843 44.86 533.689 44.918 533.495 44.918H514.529C514.336 44.918 514.239 45.0147 514.239 45.208V54.198C514.239 54.3913 514.336 54.488 514.529 54.488H526.999C527.193 54.488 527.347 54.5653 527.463 54.72C527.618 54.836 527.695 54.9907 527.695 55.184V60.81C527.695 61.0033 527.618 61.1773 527.463 61.332C527.347 61.448 527.193 61.506 526.999 61.506H514.529C514.336 61.506 514.239 61.6027 514.239 61.796V77.804C514.239 77.9973 514.162 78.1713 514.007 78.326C513.891 78.442 513.737 78.5 513.543 78.5H506.757C506.564 78.5 506.39 78.442 506.235 78.326C506.119 78.1713 506.061 77.9973 506.061 77.804V38.596C506.061 38.4027 506.119 38.248 506.235 38.132C506.39 37.9773 506.564 37.9 506.757 37.9H533.495C533.689 37.9 533.843 37.9773 533.959 38.132C534.114 38.248 534.191 38.4027 534.191 38.596V44.222ZM539.213 78.5C539.019 78.5 538.845 78.442 538.691 78.326C538.575 78.1713 538.517 77.9973 538.517 77.804V38.596C538.517 38.4027 538.575 38.248 538.691 38.132C538.845 37.9773 539.019 37.9 539.213 37.9H545.999C546.192 37.9 546.347 37.9773 546.463 38.132C546.617 38.248 546.695 38.4027 546.695 38.596V77.804C546.695 77.9973 546.617 78.1713 546.463 78.326C546.347 78.442 546.192 78.5 545.999 78.5H539.213ZM577.069 38.596C577.069 38.4027 577.127 38.248 577.243 38.132C577.398 37.9773 577.572 37.9 577.765 37.9H584.551C584.744 37.9 584.899 37.9773 585.015 38.132C585.17 38.248 585.247 38.4027 585.247 38.596V77.804C585.247 77.9973 585.17 78.1713 585.015 78.326C584.899 78.442 584.744 78.5 584.551 78.5H577.997C577.61 78.5 577.34 78.3453 577.185 78.036L562.163 53.212C562.086 53.096 562.008 53.0573 561.931 53.096C561.854 53.096 561.815 53.1733 561.815 53.328L561.931 77.804C561.931 77.9973 561.854 78.1713 561.699 78.326C561.583 78.442 561.428 78.5 561.235 78.5H554.449C554.256 78.5 554.082 78.442 553.927 78.326C553.811 78.1713 553.753 77.9973 553.753 77.804V38.596C553.753 38.4027 553.811 38.248 553.927 38.132C554.082 37.9773 554.256 37.9 554.449 37.9H561.003C561.39 37.9 561.66 38.0547 561.815 38.364L576.779 63.072C576.856 63.188 576.934 63.246 577.011 63.246C577.088 63.2073 577.127 63.1107 577.127 62.956L577.069 38.596ZM618.135 78.5C617.748 78.5 617.497 78.3067 617.381 77.92L615.641 72.236C615.564 72.0813 615.467 72.004 615.351 72.004H601.083C600.967 72.004 600.87 72.0813 600.793 72.236L599.111 77.92C598.995 78.3067 598.744 78.5 598.357 78.5H590.991C590.759 78.5 590.585 78.442 590.469 78.326C590.353 78.1713 590.334 77.9587 590.411 77.688L602.939 38.48C603.055 38.0933 603.306 37.9 603.693 37.9H612.799C613.186 37.9 613.437 38.0933 613.553 38.48L626.081 77.688C626.12 77.7653 626.139 77.862 626.139 77.978C626.139 78.326 625.926 78.5 625.501 78.5H618.135ZM602.881 65.334C602.842 65.566 602.92 65.682 603.113 65.682H613.321C613.553 65.682 613.63 65.566 613.553 65.334L608.333 48.108C608.294 47.9533 608.236 47.8953 608.159 47.934C608.082 47.934 608.024 47.992 607.985 48.108L602.881 65.334ZM654.553 38.596C654.553 38.4027 654.611 38.248 654.727 38.132C654.882 37.9773 655.056 37.9 655.249 37.9H662.035C662.229 37.9 662.383 37.9773 662.499 38.132C662.654 38.248 662.731 38.4027 662.731 38.596V77.804C662.731 77.9973 662.654 78.1713 662.499 78.326C662.383 78.442 662.229 78.5 662.035 78.5H655.481C655.095 78.5 654.824 78.3453 654.669 78.036L639.647 53.212C639.57 53.096 639.493 53.0573 639.415 53.096C639.338 53.096 639.299 53.1733 639.299 53.328L639.415 77.804C639.415 77.9973 639.338 78.1713 639.183 78.326C639.067 78.442 638.913 78.5 638.719 78.5H631.933C631.74 78.5 631.566 78.442 631.411 78.326C631.295 78.1713 631.237 77.9973 631.237 77.804V38.596C631.237 38.4027 631.295 38.248 631.411 38.132C631.566 37.9773 631.74 37.9 631.933 37.9H638.487C638.874 37.9 639.145 38.0547 639.299 38.364L654.263 63.072C654.341 63.188 654.418 63.246 654.495 63.246C654.573 63.2073 654.611 63.1107 654.611 62.956L654.553 38.596ZM684.077 78.964C681.061 78.964 678.413 78.384 676.131 77.224C673.85 76.0253 672.091 74.3627 670.853 72.236C669.616 70.1093 668.997 67.654 668.997 64.87V51.472C668.997 48.688 669.616 46.2327 670.853 44.106C672.091 41.9793 673.85 40.336 676.131 39.176C678.413 38.016 681.061 37.436 684.077 37.436C687.055 37.436 689.665 37.9967 691.907 39.118C694.189 40.2007 695.948 41.7667 697.185 43.816C698.461 45.8267 699.099 48.166 699.099 50.834C699.099 51.182 698.867 51.3947 698.403 51.472L691.617 51.878H691.501C691.115 51.878 690.921 51.6653 690.921 51.24C690.921 49.1907 690.283 47.5473 689.007 46.31C687.77 45.0727 686.127 44.454 684.077 44.454C681.989 44.454 680.307 45.0727 679.031 46.31C677.794 47.5473 677.175 49.1907 677.175 51.24V65.218C677.175 67.2287 677.794 68.8527 679.031 70.09C680.307 71.3273 681.989 71.946 684.077 71.946C686.127 71.946 687.77 71.3273 689.007 70.09C690.283 68.8527 690.921 67.2287 690.921 65.218C690.921 64.7927 691.153 64.58 691.617 64.58L698.403 64.87C698.597 64.87 698.751 64.928 698.867 65.044C699.022 65.16 699.099 65.2953 699.099 65.45C699.099 68.118 698.461 70.4767 697.185 72.526C695.948 74.5753 694.189 76.1607 691.907 77.282C689.665 78.4033 687.055 78.964 684.077 78.964ZM705.793 78.5C705.599 78.5 705.425 78.442 705.271 78.326C705.155 78.1713 705.097 77.9973 705.097 77.804V38.596C705.097 38.4027 705.155 38.248 705.271 38.132C705.425 37.9773 705.599 37.9 705.793 37.9H712.579C712.772 37.9 712.927 37.9773 713.043 38.132C713.197 38.248 713.275 38.4027 713.275 38.596V77.804C713.275 77.9973 713.197 78.1713 713.043 78.326C712.927 78.442 712.772 78.5 712.579 78.5H705.793ZM743.649 38.596C743.649 38.4027 743.707 38.248 743.823 38.132C743.978 37.9773 744.152 37.9 744.345 37.9H751.131C751.324 37.9 751.479 37.9773 751.595 38.132C751.75 38.248 751.827 38.4027 751.827 38.596V77.804C751.827 77.9973 751.75 78.1713 751.595 78.326C751.479 78.442 751.324 78.5 751.131 78.5H744.577C744.19 78.5 743.92 78.3453 743.765 78.036L728.743 53.212C728.666 53.096 728.588 53.0573 728.511 53.096C728.434 53.096 728.395 53.1733 728.395 53.328L728.511 77.804C728.511 77.9973 728.434 78.1713 728.279 78.326C728.163 78.442 728.008 78.5 727.815 78.5H721.029C720.836 78.5 720.662 78.442 720.507 78.326C720.391 78.1713 720.333 77.9973 720.333 77.804V38.596C720.333 38.4027 720.391 38.248 720.507 38.132C720.662 37.9773 720.836 37.9 721.029 37.9H727.583C727.97 37.9 728.24 38.0547 728.395 38.364L743.359 63.072C743.436 63.188 743.514 63.246 743.591 63.246C743.668 63.2073 743.707 63.1107 743.707 62.956L743.649 38.596ZM773.173 78.964C770.196 78.964 767.567 78.3647 765.285 77.166C763.004 75.9673 761.225 74.3047 759.949 72.178C758.712 70.0127 758.093 67.5187 758.093 64.696V51.704C758.093 48.8813 758.712 46.3873 759.949 44.222C761.225 42.0567 763.004 40.394 765.285 39.234C767.567 38.0353 770.196 37.436 773.173 37.436C776.112 37.436 778.703 38.016 780.945 39.176C783.227 40.336 784.986 41.9213 786.223 43.932C787.499 45.904 788.137 48.108 788.137 50.544V50.95C788.137 51.1433 788.06 51.3173 787.905 51.472C787.789 51.588 787.635 51.646 787.441 51.646H780.655C780.462 51.646 780.288 51.588 780.133 51.472C780.017 51.3173 779.959 51.1433 779.959 50.95V50.776C779.959 48.9973 779.341 47.5087 778.103 46.31C776.866 45.0727 775.223 44.454 773.173 44.454C771.085 44.454 769.403 45.1113 768.127 46.426C766.89 47.702 766.271 49.384 766.271 51.472V64.928C766.271 67.016 766.948 68.7173 768.301 70.032C769.655 71.308 771.375 71.946 773.463 71.946C775.474 71.946 777.079 71.424 778.277 70.38C779.476 69.2973 780.075 67.8087 780.075 65.914V63.304C780.075 63.1107 779.979 63.014 779.785 63.014H773.289C773.096 63.014 772.922 62.956 772.767 62.84C772.651 62.6853 772.593 62.5113 772.593 62.318V56.982C772.593 56.7887 772.651 56.634 772.767 56.518C772.922 56.3633 773.096 56.286 773.289 56.286H787.441C787.635 56.286 787.789 56.3633 787.905 56.518C788.06 56.634 788.137 56.7887 788.137 56.982V64.638C788.137 67.5767 787.519 70.1287 786.281 72.294C785.044 74.4593 783.285 76.122 781.003 77.282C778.761 78.4033 776.151 78.964 773.173 78.964Z" fill="black"/>
</svg>
